<svg width="280" height="982" viewBox="0 0 280 982" fill="none" xmlns="http://www.w3.org/2000/svg">
<path opacity="0.4" d="M70.734 0C49.3039 0 43.8904 24.1081 35.3868 42.5603C22.1291 71.3288 33.1474 102.211 39.9876 130.334C45.6046 153.427 73.162 178.129 95.0842 184.889C110.214 189.554 127.096 199.092 141.428 206.458C156.504 214.206 174.095 217.239 189.68 224.105C231.554 242.551 281.404 281.362 282.817 332.178C284.564 395.02 274.474 441.78 224.241 480.504C208.332 492.768 189.956 496.444 173.072 506.109C150.927 518.787 133.269 538.318 111.579 551.322C81.267 569.497 53.226 593.289 27.8685 618.219C1.39012 644.252 -4 688.862 -4 725.716C-4 763.091 -1.60634 787.706 28.7663 812.682C43.1563 824.514 55.0678 833.574 72.5294 839.786C88.0492 845.308 104.886 847.809 119.996 854.204C144.136 864.421 170.333 868.468 192.934 883.5C227.569 906.535 254.539 936.409 254.539 982" stroke="white" stroke-width="16" stroke-linecap="round" stroke-linejoin="round"/>
</svg>
