<svg width="80" height="81" viewBox="0 0 80 81" fill="none" xmlns="http://www.w3.org/2000/svg">
<path d="M62.6532 42.7812C62.6376 41.3796 62.3096 39.9956 61.7984 38.6956C61.404 37.6892 60.946 36.7092 60.4988 35.7256C56.9399 27.9698 53.2052 20.2958 49.2976 12.7096C48.748 11.6496 48.21 10.5832 47.6296 9.53964C47.0592 8.52164 46.3952 7.54164 45.5356 6.74484C44.164 5.43724 42.3236 4.65764 40.4348 4.54004H39.5652C37.6208 4.63604 35.7228 5.45204 34.3276 6.81204C33.4996 7.59644 32.8588 8.55284 32.3036 9.54244C31.7308 10.5688 31.2004 11.6184 30.6612 12.6616C28.0392 17.7514 25.4943 22.8805 23.0276 28.0472C21.5572 31.1392 20.0992 34.2364 18.6968 37.3588C18.1152 38.6596 17.5892 40.0048 17.3912 41.4248C17.0244 43.8224 17.5504 46.3388 18.8312 48.3976C19.9352 50.186 21.5924 51.6272 23.524 52.4596C25.034 53.1114 26.6752 53.4019 28.3172 53.308C30.5104 53.1916 32.6252 52.4036 34.4808 51.2536C36.5508 49.9832 38.3212 48.2936 39.9696 46.5248C41.5024 48.1768 43.1428 49.7532 45.0364 50.9888C46.8652 52.192 48.9504 53.0632 51.1436 53.2704C53.5256 53.5192 55.9936 52.9288 57.9928 51.6028C59.761 50.4312 61.1304 48.7486 61.9184 46.7792C62.4258 45.5084 62.6756 44.1494 62.6532 42.7812ZM39.9796 41.8564C39.3816 41.1524 38.8548 40.3908 38.3256 39.6348C37.4352 38.3288 36.6256 36.9636 35.9744 35.5212C35.4408 34.3244 35.0124 33.068 34.8452 31.7632C34.7232 30.728 34.7524 29.648 35.1324 28.6652C35.4724 27.7436 36.126 26.9452 36.954 26.4176C38.9268 25.1444 41.7388 25.282 43.5264 26.8264C44.4312 27.5972 44.9716 28.7368 45.1076 29.908C45.2856 31.4648 44.9316 33.0284 44.388 34.4804C43.3616 37.1748 41.7368 39.59 39.9796 41.8564ZM59.3368 45.1584C58.8096 46.978 57.5424 48.5676 55.8844 49.4848C54.4148 50.3068 52.6608 50.5884 51.004 50.3116C48.894 49.9832 47.0008 48.8636 45.3604 47.542C44.1548 46.5732 43.0692 45.466 42.0292 44.3248C43.6712 42.248 45.218 40.0752 46.3996 37.7C47.4308 35.62 48.2144 33.3664 48.2888 31.0276C48.3308 29.5436 48.0516 28.0324 47.3584 26.7112C46.4508 24.946 44.8248 23.59 42.9608 22.934C41.2196 22.312 39.284 22.2564 37.5076 22.7628C35.8324 23.2368 34.3024 24.2436 33.254 25.6392C32.3312 26.856 31.8052 28.352 31.6832 29.8692C31.4956 32.0544 32.0432 34.2344 32.8716 36.2432C34.1032 39.1784 35.9108 41.8352 37.9072 44.2996C37.007 45.3393 36.0301 46.31 34.9848 47.2036C33.364 48.5752 31.5096 49.7692 29.4088 50.2236C27.7104 50.6048 25.878 50.4152 24.3204 49.6272C22.496 48.718 21.0952 47.0056 20.5668 45.0372C20.1628 43.5912 20.2524 42.03 20.7328 40.6136C21.1324 39.4416 21.6744 38.3248 22.1816 37.1972C25.7024 29.5249 29.3952 21.9328 33.2572 14.4264C33.8332 13.3092 34.4004 12.1868 35.01 11.088C35.5076 10.2028 36.0864 9.33364 36.9044 8.71204C37.7889 8.023 38.883 7.6583 40.004 7.67884C41.156 7.66524 42.3012 8.08964 43.1824 8.83004C44.0528 9.55284 44.6408 10.5416 45.1688 11.5272C46.3624 13.7692 47.5088 16.0372 48.6556 18.3028C51.9285 24.7807 55.0734 31.3225 58.0884 37.9244C58.544 38.95 59.0316 39.9676 59.3384 41.05C59.7132 42.3848 59.7256 43.8264 59.3368 45.1584ZM22.8996 59.3556C23.8852 59.1324 24.962 59.7824 25.218 60.7608C25.536 61.762 24.904 62.926 23.8976 63.2156C22.9144 63.5612 21.7468 62.9604 21.4212 61.9788C21.1124 61.1516 21.4428 60.1532 22.1764 59.664C22.3951 59.5152 22.6408 59.4105 22.8996 59.3556ZM29.5564 65.8184C30.15 65.1732 30.9864 64.7688 31.848 64.64C32.4228 64.5839 33.0029 64.6206 33.566 64.7488C33.5588 65.6572 33.5644 66.5644 33.5628 67.4732C32.6792 67.2448 31.7224 67.1976 30.8552 67.5168C30.3841 67.6884 29.9596 67.9674 29.6152 68.3316C29.5408 68.3952 29.5588 68.498 29.552 68.5864C29.5572 71.1244 29.548 73.6628 29.5556 76.2004C29.5468 76.298 29.5704 76.408 29.5272 76.4996C28.5472 76.5224 27.566 76.504 26.5856 76.5076C26.586 72.6384 26.5824 68.7684 26.588 64.8992C27.4136 64.9028 28.2396 64.896 29.0656 64.9008C29.2472 64.8904 29.4408 64.9836 29.5072 65.1608C29.5724 65.3728 29.5516 65.5988 29.5564 65.8184ZM50.6876 65.8288C51.472 65.0172 52.6088 64.618 53.7244 64.6156C54.9032 64.586 56.1112 64.9344 57.022 65.6992C57.6277 66.1743 58.0645 66.8316 58.268 67.574C58.5272 68.4784 58.504 69.4284 58.5008 70.36C58.5016 72.4096 58.5008 74.4596 58.5016 76.5096C57.5132 76.508 56.5252 76.516 55.5368 76.5052C55.5376 74.4568 55.5368 72.4084 55.5376 70.3592C55.5376 69.598 55.5736 68.7768 55.1688 68.0988C54.8868 67.6124 54.3288 67.37 53.7908 67.3136C52.766 67.1496 51.6956 67.5572 50.9892 68.3044C50.914 68.3796 50.8496 68.4748 50.858 68.5884C50.8484 68.9052 50.8964 69.2232 50.8692 69.5404C50.8304 69.9712 50.8908 70.402 50.8768 70.834C50.8641 71.6485 50.8631 72.4631 50.8736 73.2776C50.8176 74.3548 50.9152 75.4356 50.8508 76.5116C49.8664 76.5084 48.8828 76.5108 47.8984 76.5104C47.898 72.6392 47.8912 68.7688 47.902 64.898C48.6632 64.904 49.426 64.898 50.1868 64.9004C50.3836 64.888 50.5988 64.998 50.6496 65.198C50.696 65.4036 50.682 65.6176 50.6876 65.8288ZM21.8156 76.51C21.8152 72.6392 21.8096 68.7688 21.8176 64.8984C22.7984 64.9008 23.7788 64.9 24.7592 64.8992C24.7668 68.7696 24.7612 72.64 24.762 76.5096C23.78 76.5096 22.798 76.5088 21.8156 76.51ZM19.9888 64.8996C19.2116 64.898 18.4344 64.902 17.6564 64.8952C17.4508 64.894 17.1884 64.904 17.088 65.12C16.998 65.342 17.0324 65.5884 17.0244 65.822C16.3776 65.1336 15.466 64.7248 14.5308 64.636C13.0868 64.5064 11.5904 64.9068 10.4308 65.7836C9.47559 66.4892 8.76959 67.5096 8.39999 68.6336C8.22199 69.1604 8.13279 69.7132 8.07599 70.2656V71.0604C8.15879 72.724 8.89879 74.3696 10.1896 75.442C11.1632 76.2668 12.4144 76.7276 13.682 76.808H14.3428C15.3476 76.7404 16.3396 76.3248 17.0252 75.576C17.0316 75.8108 16.9984 76.0596 17.0864 76.2844C17.178 76.4664 17.394 76.5164 17.5816 76.5092C18.3836 76.5072 19.1868 76.51 19.9896 76.5056C19.9896 72.638 19.992 68.7688 19.9888 64.8996ZM16.9336 72.8928C16.3336 73.6112 15.3964 74.036 14.4604 74.0064C13.4572 74.014 12.416 73.6296 11.766 72.8428C11.132 72.0916 10.9404 71.0468 11.0844 70.092C11.192 69.3192 11.586 68.578 12.2084 68.0984C12.7728 67.6528 13.4844 67.4232 14.1968 67.3736C15.258 67.2808 16.3768 67.7488 17.0152 68.6056C17.0512 69.8672 17.016 71.132 17.032 72.3956C17.0216 72.562 17.0676 72.7624 16.9336 72.8928ZM46.204 68.2208C45.7472 67.1036 44.9368 66.1324 43.9096 65.4988C42.8516 64.8404 41.5828 64.5428 40.3424 64.6272C39.3628 64.6916 38.4056 65.1096 37.7256 65.824C37.7216 63.6556 37.7256 61.4884 37.7236 59.32C36.7348 59.3204 35.7452 59.3156 34.7564 59.3228C34.7616 65.05 34.748 70.78 34.7636 76.5068C35.5824 76.5088 36.402 76.5108 37.2212 76.5088C37.4248 76.5248 37.6444 76.4128 37.7004 76.2068C37.7408 75.9972 37.726 75.7808 37.7272 75.5684C38.4144 76.3328 39.424 76.7476 40.4392 76.8088H41.0448C42.6884 76.7264 44.3 75.956 45.3316 74.6644C46.7764 72.8928 47.0584 70.3176 46.204 68.2208ZM42.746 73.1064C42.0836 73.7212 41.1668 74.016 40.2716 74.0072C39.3376 74.0288 38.4044 73.5996 37.8128 72.8768C37.7396 72.8016 37.7156 72.7 37.7216 72.6C37.7224 71.2712 37.7236 69.9428 37.7216 68.6148C38.2896 67.874 39.1988 67.4124 40.1288 67.3648C41.0716 67.3372 42.0608 67.614 42.7528 68.2788C43.412 68.8904 43.7336 69.8076 43.7128 70.696C43.732 71.5832 43.4016 72.4944 42.746 73.1064ZM70.6012 66.784C69.3436 65.1824 67.1936 64.3744 65.1892 64.674C64.352 64.806 63.5588 65.2076 62.9736 65.8236C62.9672 63.6564 62.9736 61.4892 62.9704 59.3212C61.9832 59.32 60.9968 59.3192 60.0104 59.322C60.0096 65.0496 60.0104 70.7788 60.0104 76.5072C60.7884 76.5132 61.5684 76.506 62.3464 76.5132C62.5508 76.5164 62.8064 76.5 62.9112 76.2912C63.002 76.0656 62.968 75.814 62.9744 75.5768C63.6564 76.324 64.644 76.7368 65.6432 76.8096H66.3096C67.9352 76.7212 69.5244 75.9624 70.554 74.6904C71.3948 73.676 71.8484 72.3768 71.9236 71.0684V70.292C71.8304 69.0288 71.404 67.7744 70.6012 66.784ZM68.2908 72.7728C67.508 73.7804 66.1268 74.1552 64.9016 73.9596C64.1556 73.8108 63.432 73.408 62.9908 72.7792C62.9416 72.2916 62.986 71.7984 62.9712 71.3084C62.9816 70.4072 62.9488 69.5032 62.986 68.6036C63.4348 67.9848 64.1532 67.588 64.8924 67.424C66.2604 67.1712 67.8508 67.7132 68.5424 68.9764C69.172 70.1456 69.1092 71.708 68.2908 72.7728Z" fill="#334242"/>
</svg>
