<svg width="80" height="81" viewBox="0 0 80 81" fill="none" xmlns="http://www.w3.org/2000/svg">
<g clip-path="url(#clip0_363_2051)">
<path d="M70.1433 13.0369C69.099 12.228 67.9149 11.6179 66.65 11.2369C65.64 10.9165 64.5863 10.7545 63.5267 10.7569H63.3734C61.9967 10.7769 59.4267 11.1069 57.7034 13.1236C57.3138 13.59 57.042 14.1433 56.9109 14.7367C56.7798 15.3302 56.7932 15.9464 56.95 16.5336C57.0645 17.0076 57.2928 17.4466 57.6151 17.8125C57.9375 18.1784 58.3442 18.4603 58.8 18.6336C58.8 18.6336 59.0934 18.7402 59.56 18.8269C59.4267 19.0869 59.1067 19.5402 59.1067 19.5402C58.51 20.4236 57.1867 21.5802 53.5467 21.5802H53.3367C51.41 21.4536 49.8167 20.9502 47.95 18.5302C46.7934 17.0302 46.2067 14.5069 46.12 10.3569C46.0467 8.2769 45.7634 6.47357 45.2667 5.02357C44.9334 4.0569 44.1567 3.0369 43.41 2.55024C42.7001 2.0618 41.9201 1.68415 41.0967 1.43024C39.8534 1.03024 38.27 0.963568 37.0834 0.943568C35.5434 0.910235 34.6934 1.26357 34.1567 1.9169C34.0667 2.0269 34.05 2.08357 33.93 2.07024C33.65 2.05023 33.0234 2.05024 32.8367 2.05024C31.9567 2.05024 31.1767 2.19357 30.4334 2.35023C28.8667 2.68357 27.8967 3.33357 27.0367 4.0269C26.6367 4.34357 25.88 5.24357 25.7067 6.20357C25.6304 6.53013 25.6197 6.86859 25.6752 7.19932C25.7307 7.53006 25.8513 7.84648 26.03 8.13023C26.4967 7.6369 27.2767 7.25023 28.75 7.24357C30.3934 7.2369 32.6467 7.99023 33.4367 9.27023C34.5567 11.0936 34.3367 12.5702 34.1 14.3269C33.49 18.8169 31.8334 21.1536 28.1567 21.6702C27.52 21.7569 26.89 21.8036 26.29 21.8036C23.7034 21.8036 21.8234 20.9769 20.8567 19.4169C20.7343 19.2442 20.6357 19.0558 20.5634 18.8569C20.5634 18.8569 20.8534 18.7869 21.1067 18.6702C22.0867 18.2036 22.82 17.5236 23.0867 16.4669C23.3867 15.2902 23.1 14.0402 22.32 13.1102C20.9367 11.5436 19.0167 10.7502 16.61 10.7502C15.2767 10.7502 14.0934 11.0036 13.3367 11.2169C10.31 12.0702 7.89336 14.3736 5.9567 18.2569C4.58336 21.0036 3.62336 24.6302 3.2567 28.4802C2.89003 32.2469 3.07003 35.4302 3.32003 38.3102C3.73336 43.1002 4.53003 45.9702 5.68003 49.0436C7.05683 52.7808 8.85629 56.3484 11.0434 59.6769C11.3434 59.3636 11.5434 59.1402 12.07 58.6169C12.6967 57.9836 14.4834 55.6402 14.99 54.9169C15.6234 54.0169 16.69 52.3202 17.2034 51.0936L17.7034 51.4902C18.2367 51.9136 18.5434 52.6502 18.5334 53.4636C18.5234 54.1802 18.3567 55.0102 17.92 56.5369C17.2823 58.6497 16.4055 60.6829 15.3067 62.5969C14.6767 63.7336 14.4067 64.2902 14.6434 64.5436C14.6934 64.5936 14.77 64.6436 14.8434 64.6302C15.23 64.6302 15.9767 64.2402 16.7934 63.6169C17.5334 63.0502 19.5034 61.3769 21.8834 58.0336C23.7574 55.3909 25.378 52.5774 26.7234 49.6302C27.1234 49.7836 27.5734 49.9669 27.78 50.3836C28.0649 50.9653 28.1582 51.6222 28.0467 52.2602C27.83 54.0569 26.7834 56.7702 25.9467 58.7269C24.53 62.0536 21.92 65.7769 19.9867 68.3169C19.9134 68.4169 19.4434 68.9736 19.3667 69.0736C22.3667 71.7136 25.8467 74.2569 29.39 76.1936C31.8067 77.5536 36.7334 80.0669 40 80.9402C43.2667 80.0669 48.1934 77.5536 50.6134 76.1936C54.197 74.1907 57.5532 71.8056 60.6234 69.0802C60.4567 68.8269 60.19 68.5536 60.0134 68.3136C58.0734 65.7702 55.4634 62.0436 54.0467 58.7302C53.2134 56.7636 52.17 54.0469 51.9534 52.2636C51.86 51.5269 51.9467 50.8736 52.22 50.3802C52.33 50.0536 53.1334 49.6536 53.2767 49.6269C54.6267 52.5736 56.2334 55.3936 58.1167 58.0336C60.5 61.3769 62.47 63.0536 63.2067 63.6136C64.0334 64.2502 64.7634 64.6269 65.16 64.6269C65.212 64.6303 65.2636 64.6162 65.3067 64.5869C65.62 64.3569 65.3634 63.8069 64.6967 62.6069C63.6022 60.6852 62.7236 58.6484 62.0767 56.5336C61.6434 55.0136 61.4767 54.1802 61.47 53.4669C61.4567 52.6469 61.7634 51.9136 62.2967 51.4869L62.7967 51.0936C63.3134 52.3369 64.4634 54.1569 65.0134 54.9169C65.5134 55.6369 67.2967 57.9802 67.9333 58.6169C68.4534 59.1436 68.6667 59.3569 68.96 59.6836C71.1473 56.3552 72.9468 52.7875 74.3234 49.0502C75.4667 45.9736 76.2667 43.1036 76.68 38.3102C76.93 35.4436 77.1067 32.2769 76.7467 28.4836C76.41 24.7636 75.4 20.9369 74.0467 18.2569C73.2167 16.6236 72.03 14.5502 70.1433 13.0369Z" fill="black"/>
</g>
<defs>
<clipPath id="clip0_363_2051">
<rect width="80" height="80" fill="white" transform="translate(0 0.94043)"/>
</clipPath>
</defs>
</svg>
