<svg width="36" height="37" viewBox="0 0 36 37" fill="none" xmlns="http://www.w3.org/2000/svg">
<g clip-path="url(#clip0_333_2727)">
<path fill-rule="evenodd" clip-rule="evenodd" d="M26.3295 24.6297C26.658 24.4654 27.0354 24.4273 27.3901 24.5227C27.7448 24.618 28.0522 24.8403 28.254 25.1472L28.341 25.3002L31.341 31.3002C31.448 31.5142 31.5023 31.7506 31.4994 31.9899C31.4964 32.2291 31.4363 32.4642 31.324 32.6754C31.2117 32.8867 31.0504 33.068 30.8538 33.2043C30.6571 33.3405 30.4307 33.4278 30.1935 33.4587L30 33.4707H6C5.7607 33.4708 5.52486 33.4136 5.31217 33.304C5.09947 33.1943 4.9161 33.0354 4.77736 32.8404C4.63862 32.6454 4.54854 32.4201 4.51464 32.1832C4.48074 31.9463 4.50401 31.7048 4.5825 31.4787L4.6575 31.2987L7.6575 25.2987C7.82564 24.9511 8.12133 24.6818 8.48303 24.5467C8.84473 24.4117 9.24458 24.4213 9.59938 24.5736C9.95418 24.7258 10.2366 25.0091 10.3879 25.3643C10.5391 25.7195 10.5476 26.1194 10.4115 26.4807L10.341 26.6412L8.427 30.4707H27.573L25.659 26.6412C25.4814 26.2855 25.4522 25.8739 25.5779 25.4967C25.7037 25.1195 25.974 24.8077 26.3295 24.6297ZM18 3.4707C20.7848 3.4707 23.4555 4.57695 25.4246 6.54608C27.3937 8.51521 28.5 11.1859 28.5 13.9707C28.5 17.5437 26.5665 20.4462 24.5655 22.5057C23.4601 23.6283 22.2451 24.6374 20.9385 25.5177L20.379 25.8867L19.881 26.2002C19.803 26.2467 19.728 26.2902 19.6575 26.3352L19.272 26.5572C18.48 27.0072 17.52 27.0072 16.728 26.5572L16.3425 26.3337L15.8775 26.0502C15.7917 25.9962 15.7062 25.9417 15.621 25.8867L15.0615 25.5177C13.7549 24.6374 12.5398 23.6283 11.4345 22.5057C9.4335 20.4462 7.5 17.5437 7.5 13.9707C7.5 11.1859 8.60624 8.51521 10.5754 6.54608C12.5445 4.57695 15.2152 3.4707 18 3.4707ZM18 10.9707C17.2043 10.9707 16.4413 11.2868 15.8787 11.8494C15.3161 12.412 15 13.1751 15 13.9707C15 14.7664 15.3161 15.5294 15.8787 16.092C16.4413 16.6546 17.2043 16.9707 18 16.9707C18.7956 16.9707 19.5587 16.6546 20.1213 16.092C20.6839 15.5294 21 14.7664 21 13.9707C21 13.1751 20.6839 12.412 20.1213 11.8494C19.5587 11.2868 18.7956 10.9707 18 10.9707Z" fill="#00A4A4"/>
</g>
<defs>
<clipPath id="clip0_333_2727">
<rect width="36" height="36" fill="white" transform="translate(0 0.470703)"/>
</clipPath>
</defs>
</svg>
