<svg width="36" height="37" viewBox="0 0 36 37" fill="none" xmlns="http://www.w3.org/2000/svg">
<path fill-rule="evenodd" clip-rule="evenodd" d="M24 4.9707C24.3978 4.9707 24.7794 5.12874 25.0607 5.41004C25.342 5.69135 25.5 6.07288 25.5 6.4707V7.9707H28.5C29.2956 7.9707 30.0587 8.28677 30.6213 8.84938C31.1839 9.41199 31.5 10.1751 31.5 10.9707V19.2627C29.7854 17.73 27.5491 16.9118 25.2501 16.9762C22.9512 17.0405 20.7642 17.9825 19.138 19.6087C17.5118 21.2349 16.5698 23.4219 16.5054 25.7209C16.4411 28.0198 17.2593 30.2561 18.792 31.9707H7.5C6.70435 31.9707 5.94129 31.6546 5.37868 31.092C4.81607 30.5294 4.5 29.7664 4.5 28.9707V10.9707C4.5 10.1751 4.81607 9.41199 5.37868 8.84938C5.94129 8.28677 6.70435 7.9707 7.5 7.9707H10.5V6.4707C10.5 6.07288 10.658 5.69135 10.9393 5.41004C11.2206 5.12874 11.6022 4.9707 12 4.9707C12.3978 4.9707 12.7794 5.12874 13.0607 5.41004C13.342 5.69135 13.5 6.07288 13.5 6.4707V7.9707H22.5V6.4707C22.5 6.07288 22.658 5.69135 22.9393 5.41004C23.2206 5.12874 23.6022 4.9707 24 4.9707ZM25.5 19.9707C27.0913 19.9707 28.6174 20.6028 29.7426 21.7281C30.8679 22.8533 31.5 24.3794 31.5 25.9707C31.5 27.562 30.8679 29.0881 29.7426 30.2133C28.6174 31.3386 27.0913 31.9707 25.5 31.9707C23.9087 31.9707 22.3826 31.3386 21.2574 30.2133C20.1321 29.0881 19.5 27.562 19.5 25.9707C19.5 24.3794 20.1321 22.8533 21.2574 21.7281C22.3826 20.6028 23.9087 19.9707 25.5 19.9707ZM25.5 22.2207C25.1326 22.2208 24.778 22.3556 24.5034 22.5998C24.2289 22.8439 24.0535 23.1803 24.0105 23.5452L24 23.7207V25.9707C24 26.3381 24.1349 26.6927 24.3791 26.9673C24.6232 27.2418 24.9596 27.4172 25.3245 27.4602L25.5 27.4707H27C27.3823 27.4703 27.75 27.3239 28.0281 27.0614C28.3061 26.799 28.4734 26.4403 28.4958 26.0586C28.5182 25.6769 28.394 25.3011 28.1486 25.008C27.9032 24.7148 27.5551 24.5264 27.1755 24.4812L27 24.4707V23.7207C27 23.3229 26.842 22.9413 26.5607 22.66C26.2794 22.3787 25.8978 22.2207 25.5 22.2207ZM12.75 21.4707H12C11.6022 21.4707 11.2206 21.6287 10.9393 21.91C10.658 22.1913 10.5 22.5729 10.5 22.9707C10.5 23.3685 10.658 23.7501 10.9393 24.0314C11.2206 24.3127 11.6022 24.4707 12 24.4707H12.75C13.1478 24.4707 13.5294 24.3127 13.8107 24.0314C14.092 23.7501 14.25 23.3685 14.25 22.9707C14.25 22.5729 14.092 22.1913 13.8107 21.91C13.5294 21.6287 13.1478 21.4707 12.75 21.4707ZM16.5 15.4707H12C11.6177 15.4711 11.25 15.6175 10.9719 15.88C10.6939 16.1424 10.5266 16.5011 10.5042 16.8828C10.4818 17.2645 10.606 17.6403 10.8514 17.9335C11.0968 18.2266 11.4449 18.415 11.8245 18.4602L12 18.4707H16.5C16.8823 18.4703 17.25 18.3239 17.5281 18.0614C17.8061 17.799 17.9734 17.4403 17.9958 17.0586C18.0182 16.6769 17.894 16.3011 17.6486 16.008C17.4032 15.7148 17.0551 15.5264 16.6755 15.4812L16.5 15.4707Z" fill="#00A4A4"/>
</svg>
