<svg width="36" height="37" viewBox="0 0 36 37" fill="none" xmlns="http://www.w3.org/2000/svg">
<g clip-path="url(#clip0_333_2735)">
<path d="M16.5 19.9707C17.1705 19.9707 17.8305 20.0067 18.474 20.0757C18.7317 20.1033 18.9778 20.1973 19.1883 20.3483C19.3989 20.4993 19.5667 20.7024 19.6755 20.9376C19.7843 21.1728 19.8302 21.4321 19.8089 21.6904C19.7876 21.9487 19.6998 22.197 19.554 22.4112C18.5379 23.9025 17.9962 25.6661 18 27.4707C18 28.8507 18.3105 30.1557 18.8625 31.3212C18.9634 31.5337 19.0129 31.7669 19.007 32.0021C19.0011 32.2373 18.94 32.4677 18.8286 32.6749C18.7172 32.8821 18.5586 33.0602 18.3657 33.1948C18.1728 33.3294 17.9509 33.4167 17.718 33.4497L17.5275 33.4647L16.5 33.4707C13.1565 33.4707 9.9975 33.2607 7.6305 32.6337C6.453 32.3217 5.3445 31.8747 4.5045 31.1997C3.615 30.4857 3 29.4882 3 28.2207C3 27.0402 3.537 25.9362 4.266 25.0122C5.007 24.0747 6.0315 23.2122 7.233 22.4772C9.6375 21.0132 12.9075 19.9707 16.5 19.9707ZM27 19.9707C28.5913 19.9707 30.1174 20.6028 31.2426 21.7281C32.3679 22.8533 33 24.3794 33 25.9707C33 28.0512 31.8675 29.6907 30.7965 30.7857C30.1275 31.4697 29.4165 32.0112 28.845 32.3952L28.2705 32.7612L27.9825 32.9307C27.6828 33.1003 27.3443 33.1894 27 33.1894C26.6557 33.1894 26.3172 33.1003 26.0175 32.9307L25.7295 32.7612L25.362 32.5332C24.762 32.1432 23.955 31.5552 23.202 30.7857C22.134 29.6907 21 28.0512 21 25.9707C21 24.3794 21.6321 22.8533 22.7574 21.7281C23.8826 20.6028 25.4087 19.9707 27 19.9707ZM27 24.4707C26.6022 24.4707 26.2206 24.6287 25.9393 24.91C25.658 25.1913 25.5 25.5729 25.5 25.9707C25.5 26.3685 25.658 26.7501 25.9393 27.0314C26.2206 27.3127 26.6022 27.4707 27 27.4707C27.3978 27.4707 27.7794 27.3127 28.0607 27.0314C28.342 26.7501 28.5 26.3685 28.5 25.9707C28.5 25.5729 28.342 25.1913 28.0607 24.91C27.7794 24.6287 27.3978 24.4707 27 24.4707ZM16.5 3.4707C18.4891 3.4707 20.3968 4.26088 21.8033 5.6674C23.2098 7.07393 24 8.98158 24 10.9707C24 12.9598 23.2098 14.8675 21.8033 16.274C20.3968 17.6805 18.4891 18.4707 16.5 18.4707C14.5109 18.4707 12.6032 17.6805 11.1967 16.274C9.79018 14.8675 9 12.9598 9 10.9707C9 8.98158 9.79018 7.07393 11.1967 5.6674C12.6032 4.26088 14.5109 3.4707 16.5 3.4707Z" fill="#00A4A4"/>
</g>
<defs>
<clipPath id="clip0_333_2735">
<rect width="36" height="36" fill="white" transform="translate(0 0.470703)"/>
</clipPath>
</defs>
</svg>
