<svg width="36" height="37" viewBox="0 0 36 37" fill="none" xmlns="http://www.w3.org/2000/svg">
<g clip-path="url(#clip0_333_2757)">
<path d="M16.3801 4.77275C16.5452 4.48949 16.7816 4.25446 17.0659 4.09111C17.3501 3.92776 17.6723 3.8418 18.0001 3.8418C18.3279 3.8418 18.6501 3.92776 18.9343 4.09111C19.2186 4.25446 19.455 4.48949 19.6201 4.77275L23.8126 11.9697L31.9546 13.7337C32.2749 13.8033 32.5713 13.9557 32.8143 14.1755C33.0574 14.3954 33.2386 14.6752 33.3398 14.9869C33.441 15.2986 33.4588 15.6314 33.3913 15.9521C33.3238 16.2728 33.1734 16.5703 32.9551 16.8147L27.4051 23.0262L28.2451 31.3138C28.2782 31.6401 28.2252 31.9694 28.0912 32.2688C27.9573 32.5682 27.7472 32.8273 27.4818 33.0201C27.2164 33.2129 26.9051 33.3327 26.579 33.3676C26.2528 33.4024 25.9232 33.3511 25.6231 33.2188L18.0001 29.8587L10.3771 33.2188C10.077 33.3511 9.74739 33.4024 9.42123 33.3676C9.09508 33.3327 8.78377 33.2129 8.51841 33.0201C8.25304 32.8273 8.04289 32.5682 7.90895 32.2688C7.77501 31.9694 7.72196 31.6401 7.7551 31.3138L8.5951 23.0262L3.0451 16.8162C2.82644 16.5718 2.67573 16.2742 2.60802 15.9533C2.54031 15.6324 2.55796 15.2993 2.65922 14.9874C2.76047 14.6754 2.94179 14.3955 3.18506 14.1755C3.42833 13.9555 3.72505 13.8032 4.0456 13.7337L12.1876 11.9697L16.3801 4.77275Z" fill="#00A4A4"/>
</g>
<defs>
<clipPath id="clip0_333_2757">
<rect width="36" height="36" fill="white" transform="translate(0 0.470703)"/>
</clipPath>
</defs>
</svg>
