<svg width="36" height="37" viewBox="0 0 36 37" fill="none" xmlns="http://www.w3.org/2000/svg">
<path fill-rule="evenodd" clip-rule="evenodd" d="M7.5 4.9707C6.70435 4.9707 5.94129 5.28677 5.37868 5.84938C4.81607 6.41199 4.5 7.17505 4.5 7.9707V15.4707H31.5V7.9707C31.5 7.17505 31.1839 6.41199 30.6213 5.84938C30.0587 5.28677 29.2956 4.9707 28.5 4.9707H7.5ZM4.5 21.4707V18.4707H31.5V21.4707C31.5 22.2664 31.1839 23.0294 30.6213 23.592C30.0587 24.1546 29.2956 24.4707 28.5 24.4707H19.5V28.9707H22.5C22.8978 28.9707 23.2794 29.1287 23.5607 29.41C23.842 29.6913 24 30.0729 24 30.4707C24 30.8685 23.842 31.2501 23.5607 31.5314C23.2794 31.8127 22.8978 31.9707 22.5 31.9707H13.5C13.1022 31.9707 12.7206 31.8127 12.4393 31.5314C12.158 31.2501 12 30.8685 12 30.4707C12 30.0729 12.158 29.6913 12.4393 29.41C12.7206 29.1287 13.1022 28.9707 13.5 28.9707H16.5V24.4707H7.5C6.70435 24.4707 5.94129 24.1546 5.37868 23.592C4.81607 23.0294 4.5 22.2664 4.5 21.4707Z" fill="#00A4A4"/>
</svg>
