<svg width="36" height="37" viewBox="0 0 36 37" fill="none" xmlns="http://www.w3.org/2000/svg">
<path d="M10.5 21.4702V18.4702H25.5V21.4702H10.5ZM10.5 27.4702V24.4702H21V27.4702H10.5ZM7.5 33.4702C6.675 33.4702 5.969 33.1767 5.382 32.5897C4.795 32.0027 4.501 31.2962 4.5 30.4702V9.47021C4.5 8.64522 4.794 7.93921 5.382 7.35221C5.97 6.76521 6.676 6.47121 7.5 6.47021H9V3.47021H12V6.47021H24V3.47021H27V6.47021H28.5C29.325 6.47021 30.0315 6.76421 30.6195 7.35221C31.2075 7.94021 31.501 8.64621 31.5 9.47021V30.4702C31.5 31.2952 31.2065 32.0017 30.6195 32.5897C30.0325 33.1777 29.326 33.4712 28.5 33.4702H7.5ZM7.5 30.4702H28.5V15.4702H7.5V30.4702Z" fill="#00A4A4"/>
</svg>
