<svg width="48" height="49" viewBox="0 0 48 49" fill="none" xmlns="http://www.w3.org/2000/svg">
<g clip-path="url(#clip0_321_1052)">
<path d="M22 26.9404C22.894 26.9404 23.774 26.9884 24.632 27.0804C24.9755 27.1173 25.3037 27.2425 25.5844 27.4439C25.8652 27.6453 26.089 27.916 26.234 28.2296C26.379 28.5432 26.4403 28.889 26.4119 29.2333C26.3835 29.5777 26.2664 29.9088 26.072 30.1944C24.7172 32.1829 23.9949 34.5343 24 36.9404C24 38.7804 24.414 40.5204 25.15 42.0744C25.2845 42.3578 25.3505 42.6688 25.3427 42.9823C25.3348 43.2958 25.2533 43.6031 25.1048 43.8794C24.9563 44.1556 24.7448 44.3931 24.4876 44.5725C24.2304 44.752 23.9345 44.8684 23.624 44.9124L23.37 44.9324L22 44.9404C17.542 44.9404 13.33 44.6604 10.174 43.8244C8.604 43.4084 7.126 42.8124 6.006 41.9124C4.82 40.9604 4 39.6304 4 37.9404C4 36.3664 4.716 34.8944 5.688 33.6624C6.676 32.4124 8.042 31.2624 9.644 30.2824C12.85 28.3304 17.21 26.9404 22 26.9404ZM36 26.9404C38.1217 26.9404 40.1566 27.7833 41.6569 29.2836C43.1571 30.7839 44 32.8187 44 34.9404C44 37.7144 42.49 39.9004 41.062 41.3604C40.17 42.2724 39.222 42.9944 38.46 43.5064L37.694 43.9944L37.31 44.2204C36.9104 44.4465 36.4591 44.5654 36 44.5654C35.5409 44.5654 35.0896 44.4465 34.69 44.2204L34.306 43.9944L33.816 43.6904C33.016 43.1704 31.94 42.3864 30.936 41.3604C29.512 39.9004 28 37.7144 28 34.9404C28 32.8187 28.8429 30.7839 30.3431 29.2836C31.8434 27.7833 33.8783 26.9404 36 26.9404ZM36 32.9404C35.4696 32.9404 34.9609 33.1511 34.5858 33.5262C34.2107 33.9013 34 34.41 34 34.9404C34 35.4709 34.2107 35.9796 34.5858 36.3546C34.9609 36.7297 35.4696 36.9404 36 36.9404C36.5304 36.9404 37.0391 36.7297 37.4142 36.3546C37.7893 35.9796 38 35.4709 38 34.9404C38 34.41 37.7893 33.9013 37.4142 33.5262C37.0391 33.1511 36.5304 32.9404 36 32.9404ZM22 4.94043C24.6522 4.94043 27.1957 5.994 29.0711 7.86936C30.9464 9.74473 32 12.2883 32 14.9404C32 17.5926 30.9464 20.1361 29.0711 22.0115C27.1957 23.8869 24.6522 24.9404 22 24.9404C19.3478 24.9404 16.8043 23.8869 14.9289 22.0115C13.0536 20.1361 12 17.5926 12 14.9404C12 12.2883 13.0536 9.74473 14.9289 7.86936C16.8043 5.994 19.3478 4.94043 22 4.94043Z" fill="#00A4A4"/>
</g>
<defs>
<clipPath id="clip0_321_1052">
<rect width="48" height="48" fill="white" transform="translate(0 0.94043)"/>
</clipPath>
</defs>
</svg>
