<svg width="48" height="49" viewBox="0 0 48 49" fill="none" xmlns="http://www.w3.org/2000/svg">
<path fill-rule="evenodd" clip-rule="evenodd" d="M10 6.94043C8.93913 6.94043 7.92172 7.36186 7.17157 8.112C6.42143 8.86215 6 9.87956 6 10.9404V20.9404H42V10.9404C42 9.87956 41.5786 8.86215 40.8284 8.112C40.0783 7.36186 39.0609 6.94043 38 6.94043H10ZM6 28.9404V24.9404H42V28.9404C42 30.0013 41.5786 31.0187 40.8284 31.7689C40.0783 32.519 39.0609 32.9404 38 32.9404H26V38.9404H30C30.5304 38.9404 31.0391 39.1511 31.4142 39.5262C31.7893 39.9013 32 40.41 32 40.9404C32 41.4709 31.7893 41.9796 31.4142 42.3546C31.0391 42.7297 30.5304 42.9404 30 42.9404H18C17.4696 42.9404 16.9609 42.7297 16.5858 42.3546C16.2107 41.9796 16 41.4709 16 40.9404C16 40.41 16.2107 39.9013 16.5858 39.5262C16.9609 39.1511 17.4696 38.9404 18 38.9404H22V32.9404H10C8.93913 32.9404 7.92172 32.519 7.17157 31.7689C6.42143 31.0187 6 30.0013 6 28.9404Z" fill="#00A4A4"/>
</svg>
