<svg width="24" height="24" viewBox="0 0 24 24" fill="none" xmlns="http://www.w3.org/2000/svg">
<path fill-rule="evenodd" clip-rule="evenodd" d="M15.9534 3.30905C15.1833 3.24999 14.2336 3.25 13.0253 3.25H11.3391C10.1308 3.25 9.18106 3.24999 8.41104 3.30905C7.6251 3.36933 6.97037 3.49408 6.36182 3.77306C5.35638 4.23397 4.50521 4.97509 3.91036 5.90756C3.75506 6.15101 3.62643 6.40771 3.51669 6.68458C3.14335 7.62653 2.97075 8.86979 2.71959 10.6789L2.69835 10.8319C2.48445 12.372 2.31723 13.5759 2.26644 14.5457C2.21487 15.5303 2.27725 16.3508 2.57345 17.1041C3.05758 18.3353 3.95146 19.362 5.10438 20.0109C5.80976 20.4079 6.6139 20.5825 7.59626 20.6669C8.56378 20.75 9.77928 20.75 11.3341 20.75H13.0303C14.5851 20.75 15.8006 20.75 16.7681 20.6669C17.7505 20.5825 18.5546 20.4079 19.26 20.0109C20.4129 19.362 21.3068 18.3353 21.7909 17.1041C22.0872 16.3508 22.1495 15.5303 22.098 14.5457C22.0472 13.5759 21.8799 12.3719 21.666 10.8318L21.6417 10.6562C21.3756 8.73923 21.1974 7.45549 20.7633 6.48414C20.673 6.282 20.571 6.09084 20.454 5.90756C19.8592 4.97509 19.008 4.23397 18.0026 3.77306C17.394 3.49408 16.7393 3.36933 15.9534 3.30905ZM6.9869 5.13661C7.37051 4.96075 7.82913 4.85809 8.52575 4.80466C9.23173 4.75051 10.1241 4.75 11.3701 4.75H12.9943C14.2403 4.75 15.1327 4.75051 15.8386 4.80466C16.5353 4.85809 16.9939 4.96075 17.3775 5.13661C18.0997 5.46767 18.7142 5.99432 19.1518 6.65629L18.6016 7.20647C16.9199 8.88813 15.7109 10.0949 14.6681 10.8905C13.6426 11.673 12.8665 11.9868 12.0609 11.9868C11.2552 11.9868 10.4791 11.673 9.45361 10.8905C8.4108 10.0949 7.20178 8.88813 5.52012 7.20647L5.11921 6.80556C5.13735 6.77452 5.15592 6.74412 5.17496 6.71429C5.61463 6.02507 6.24375 5.47729 6.9869 5.13661ZM19.7314 8.19795C19.8759 8.86551 20.0011 9.74811 20.1754 11.0026C20.3953 12.5859 20.553 13.7262 20.6 14.6241C20.6467 15.5146 20.5783 16.089 20.395 16.5552C20.0372 17.4652 19.3765 18.2241 18.5243 18.7037C18.0877 18.9494 17.5282 19.0961 16.6398 19.1724C15.744 19.2494 14.5928 19.25 12.9943 19.25H11.3701C9.77161 19.25 8.62044 19.2494 7.72462 19.1724C6.83619 19.0961 6.27668 18.9494 5.8401 18.7037C4.98794 18.2241 4.32724 17.4652 3.96941 16.5552C3.78609 16.089 3.71775 15.5146 3.76438 14.6241C3.81141 13.7262 3.96913 12.5859 4.18903 11.0026C4.34607 9.872 4.46304 9.04274 4.59125 8.39892C6.1801 9.98769 7.43266 11.2353 8.54374 12.0831C9.70267 12.9673 10.7954 13.4868 12.0609 13.4868C13.3263 13.4868 14.4191 12.9673 15.578 12.0831C16.7102 11.2192 17.9894 9.93999 19.6217 8.30771L19.7314 8.19795Z" fill="#2D264B"/>
</svg>
