<svg width="80" height="81" viewBox="0 0 80 81" fill="none" xmlns="http://www.w3.org/2000/svg">
<g clip-path="url(#clip0_363_2053)">
<path fill-rule="evenodd" clip-rule="evenodd" d="M0 0.94043H80V80.9404H0V0.94043Z" fill="white"/>
<path fill-rule="evenodd" clip-rule="evenodd" d="M34.385 35.7526C34.1547 35.7526 33.6699 35.0421 33.6903 34.3004L33.6952 30.5381H34.6573C35.1711 30.5381 35.8758 30.4688 36.5175 30.8859C36.5175 30.8859 36.0688 29.5657 34.6573 29.5657H33.6952V28.5924C33.6952 28.5924 33.6952 27.7586 33.5031 27.4802H34.8499C35.941 27.4802 36.8391 27.4802 37.8012 28.1056C37.8012 28.1056 37.6077 26.5073 35.3628 26.5073H31.0656C31.0656 26.5073 31.8351 27.2021 31.7707 28.592L31.8351 34.2925C31.8351 35.6816 32.348 35.7509 32.348 35.7509L34.385 35.7526ZM48.553 28.3131L47.2983 28.3127C47.2983 28.3127 47.8512 28.6638 47.5229 30.1588H47.5245L46.5484 34.5511C46.5484 34.5511 46.4479 35.1682 46.2637 35.1649C45.6183 35.1537 45.3257 34.1045 45.2165 33.748C45.1435 33.5135 44.4271 29.4067 44.3977 29.2822C44.169 28.3467 43.6261 28.314 43.2995 28.3131H42.0195C42.0195 28.3131 42.359 28.5074 42.5342 29.215C42.5578 29.308 43.4058 33.7617 43.4058 33.7617C43.4058 33.7617 43.5809 34.6967 44.1321 35.1616C44.792 35.7186 45.3684 35.7522 45.7656 35.7522C46.0541 35.7522 46.2869 35.5878 46.2869 35.5878L46.1288 36.212C45.842 37.443 44.9372 38.0585 44.9372 38.0585C44.9372 38.0585 46.8866 38.0598 46.9045 38.0585C47.0252 38.0481 47.5187 37.9004 47.9097 36.288L49.3341 30.1941C49.6881 28.4098 48.9771 28.3173 48.553 28.3131ZM40.862 33.9028C40.862 35.1358 41.6248 35.7522 41.6248 35.7522H39.6837C39.6837 35.7522 39.0599 35.8402 39.0599 33.9028V28.3567C39.0599 26.8597 38.4366 26.5077 38.4366 26.5077H39.6148C40.0307 26.5077 40.862 26.5077 40.862 28.5331V33.9028ZM66.5575 53.1445C68.0143 52.9071 68.494 52.2908 68.494 52.2908V50.5066C67.339 52.6062 65.451 51.8716 65.031 51.6608C63.666 51.137 63.5606 49.3528 63.5606 49.3528C64.611 48.0923 65.8698 48.4078 67.5494 46.6235C69.6483 44.4189 68.074 42.0055 65.1356 42.0055C62.0918 42.0055 60.4121 44.8393 60.4121 47.8823C60.4121 50.5647 61.961 52.6772 64.3412 53.1408C64.9306 53.2541 65.9636 53.2387 66.5575 53.1445ZM47.9242 51.872C47.2942 51.872 46.7692 51.242 46.7692 50.507C46.7692 47.7786 49.0784 47.3594 49.7084 46.6244V51.2424C49.3938 51.5558 49.183 51.872 47.9242 51.872ZM12.1351 51.6612H8.8821C7.8329 51.6612 7.93749 50.8216 7.8329 50.087V45.3643H9.40671C10.2467 45.3643 11.4014 45.2589 12.4506 45.8889C12.4506 45.8889 11.7155 43.8955 9.40671 43.8955H7.8329V42.4259C7.8329 42.4259 7.8329 41.1671 7.51789 40.7458H9.72213C11.5059 40.7458 12.9756 40.7458 14.5498 41.6917C14.5498 41.6917 14.2344 39.2775 10.5617 39.2775H3.52985C3.52985 39.2775 4.78947 40.3267 4.68447 42.4259L4.78905 51.032C4.78905 52.4975 5.19828 52.9914 5.44522 53.1549H13.2346C14.3132 52.8826 14.7598 51.9812 14.7598 51.4512V50.6116C14.7598 50.6116 14.2339 51.6612 12.1351 51.6612ZM74.0567 50.1924C74.0567 50.9262 73.3217 51.9766 71.8525 51.9766C70.2783 51.9766 69.7537 50.4024 69.7537 50.4024V52.3958C69.7537 52.3958 70.4393 52.9453 71.5906 53.1553H73.2736C74.898 52.8295 76.388 51.5375 76.4706 49.8595V49.5628C76.4706 48.8278 76.2605 48.1978 75.8405 47.5686C75.1059 46.729 73.8463 46.0989 72.9013 45.4697C72.3767 45.1543 72.0629 44.5255 72.0629 44.3147C72.0629 43.8955 72.2721 43.1605 73.7409 43.1605C75.2105 43.1605 75.8405 44.7356 75.8405 44.7356V42.8459C75.8405 42.8459 74.6863 42.0063 73.0075 42.0063C71.2233 42.0063 69.6483 43.1605 69.6483 44.6301C69.7537 45.9943 70.2783 46.8344 71.3279 47.5686C71.7479 47.8832 72.2721 48.1978 72.9013 48.5136C73.7413 49.0374 74.0567 49.5624 74.0567 50.1924ZM49.7084 45.5743C48.9734 46.7285 43.7262 46.9385 44.5658 51.1374C44.8115 52.3672 45.5071 52.9565 46.4496 53.1549H48.0342C48.9332 52.9474 49.4561 52.3759 49.708 51.8716C49.918 53.1304 50.5468 53.1304 50.5468 53.1304H53.4861C53.4861 53.1304 52.3319 52.3954 52.3319 50.9258V44.7351C52.3319 43.2647 50.6522 42.0059 48.9726 42.0059C47.2938 42.0059 46.1396 42.8455 46.1396 42.8455V44.8397C46.1396 44.8397 46.7688 43.2647 48.3438 43.2647C49.8126 43.2647 49.918 43.9993 49.918 44.4189C49.918 44.4193 50.0226 44.8397 49.7084 45.5743ZM34.49 41.1671C35.2246 41.1671 35.8547 40.5363 35.8547 39.8016C35.8547 39.0679 35.2246 38.4378 34.49 38.4378C33.7554 38.4378 33.1258 39.0679 33.1258 39.8016C33.1258 40.5363 33.7558 41.1671 34.49 41.1671ZM65.7648 45.9943C66.1856 45.0501 66.6052 42.7405 64.926 42.8459C63.0372 43.0551 63.3518 48.1978 63.3518 48.1978C63.9814 47.464 65.031 47.3594 65.7648 45.9943ZM58.6283 43.2651C59.5733 43.2651 60.3079 43.7905 60.3079 43.7905V42.1117H57.8941V39.4875C57.8941 39.4875 57.2658 40.6413 55.9007 41.6921C55.0611 42.4267 53.2777 43.2655 53.2777 43.2655H55.1657V51.0328C55.1657 53.1317 56.1107 53.1317 56.1107 53.1317H59.05C59.05 53.1317 57.8941 52.3966 57.8941 51.0328V43.2655L58.6283 43.2651ZM44.8804 42.9505C44.8804 42.9505 44.6704 42.1117 43.4107 42.1117C41.5219 42.1117 41.1023 44.3151 41.1023 44.3151C40.9977 42.5309 40.4723 42.0067 39.2135 42.0067H37.4297C37.4297 42.0067 38.4785 42.4267 38.4785 44.3151V50.9266C38.4785 53.1312 39.3185 53.1312 39.3185 53.1312H42.2565C42.1528 53.1312 41.1023 52.3962 41.1023 50.9266V45.4706C41.2077 44.9451 41.5223 44.631 41.8369 44.3155C42.7811 43.6863 44.1462 43.8964 44.8808 44.7364L44.8804 42.9505ZM35.8547 50.9262C35.8547 52.3958 37.0093 53.1308 37.0093 53.1308H34.0704C34.0704 53.1308 33.1258 53.2354 33.1258 50.9262V44.3147C33.1258 42.5305 32.1812 42.1113 32.1812 42.1113H33.9654C34.5954 42.1113 35.8547 42.1113 35.8547 44.5251V50.9262ZM30.7116 50.9262V44.9447C30.7116 42.6363 28.8232 42.0063 27.3535 42.0063C25.5693 42.0063 24.9401 43.5797 24.7301 44.1051C24.3097 42.6363 22.8405 42.0063 21.6859 42.0063C19.3774 42.0063 18.8528 44.1051 18.8528 44.1051C18.8528 44.1051 18.7478 42.1117 16.9636 42.1117H15.1794C15.1794 42.1117 16.2286 42.5309 16.2286 44.3151V50.9266C16.2286 52.4747 16.6424 52.9881 16.8893 53.1557H19.9141C19.631 52.9133 18.8528 52.1929 18.8528 50.9266V45.0506C18.9578 44.736 19.3774 43.8964 20.6371 43.8964C21.3717 43.8964 22.1063 44.631 22.1063 45.4706V50.9266C22.1063 53.1312 22.9459 53.1312 22.9459 53.1312H25.8843C25.8843 53.1312 24.8351 52.3962 24.8351 50.9266V45.0506C24.9405 44.736 25.2551 43.8964 26.4093 43.8964C27.2494 43.8964 27.9831 44.631 27.9831 45.4706V50.9266C27.9831 53.2358 28.9282 53.1312 28.9282 53.1312H31.8666C31.8666 53.1312 30.7116 52.3958 30.7116 50.9262Z" fill="#334242"/>
</g>
<defs>
<clipPath id="clip0_363_2053">
<rect width="80" height="80" fill="white" transform="translate(0 0.94043)"/>
</clipPath>
</defs>
</svg>
