<svg width="80" height="81" viewBox="0 0 80 81" fill="none" xmlns="http://www.w3.org/2000/svg">
<path d="M41.005 11.9296L34.0275 11.975C32.7792 11.9821 31.9517 12.8025 31.9517 14.0475V22.4208C31.9517 23.6658 32.7829 24.4933 34.0275 24.4933H41.005C63.5029 24.4933 63.5029 57.395 41.005 57.395H34.0275C32.7829 57.395 31.9517 58.2225 31.9517 59.4675V67.8408C31.9517 69.0854 32.7792 69.9063 34.0275 69.9129L41.005 69.9588C80.7758 69.9588 80.7758 11.9233 41.005 11.9233M19.9875 33.3542H11.2425C9.99417 33.3542 9.16667 34.1813 9.16667 35.4267V67.8438C9.16667 69.0888 9.99417 69.9163 11.2425 69.9163H19.9875C21.2363 69.9163 22.06 69.0892 22.06 67.8438V35.4267C22.0596 34.1813 21.2358 33.3542 19.9875 33.3542ZM19.9875 11.9296H11.2425C9.99417 11.9296 9.16667 12.7571 9.16667 14.0021V22.4033C9.16667 23.6517 9.99417 24.4758 11.2425 24.4758H19.9875C21.2363 24.4758 22.06 23.6517 22.06 22.4033V14.0021C22.0596 12.7571 21.2358 11.9296 19.9875 11.9296Z" stroke="black" stroke-width="2" stroke-linecap="round" stroke-linejoin="round"/>
</svg>
