<svg width="48" height="49" viewBox="0 0 48 49" fill="none" xmlns="http://www.w3.org/2000/svg">
<path d="M14 28.9404V24.9404H34V28.9404H14ZM14 36.9404V32.9404H28V36.9404H14ZM10 44.9404C8.9 44.9404 7.95867 44.5491 7.176 43.7664C6.39333 42.9838 6.00133 42.0418 6 40.9404V12.9404C6 11.8404 6.392 10.8991 7.176 10.1164C7.96 9.33376 8.90133 8.94176 10 8.94043H12V4.94043H16V8.94043H32V4.94043H36V8.94043H38C39.1 8.94043 40.042 9.33243 40.826 10.1164C41.61 10.9004 42.0013 11.8418 42 12.9404V40.9404C42 42.0404 41.6087 42.9824 40.826 43.7664C40.0433 44.5504 39.1013 44.9418 38 44.9404H10ZM10 40.9404H38V20.9404H10V40.9404Z" fill="#00A4A4"/>
</svg>
