<svg width="48" height="49" viewBox="0 0 48 49" fill="none" xmlns="http://www.w3.org/2000/svg">
<g clip-path="url(#clip0_321_1044)">
<path fill-rule="evenodd" clip-rule="evenodd" d="M35.106 33.1524C35.544 32.9333 36.0472 32.8825 36.5202 33.0097C36.9931 33.1369 37.403 33.4332 37.672 33.8424L37.788 34.0464L41.788 42.0464C41.9307 42.3317 42.0031 42.647 41.9992 42.966C41.9952 43.285 41.915 43.5984 41.7653 43.88C41.6156 44.1617 41.4006 44.4035 41.1384 44.5852C40.8762 44.7668 40.5743 44.8832 40.258 44.9244L40 44.9404H8C7.68094 44.9405 7.36649 44.8643 7.0829 44.7181C6.79931 44.5719 6.55481 44.36 6.36982 44.1C6.18484 43.84 6.06473 43.5396 6.01953 43.2238C5.97433 42.9079 6.00535 42.5858 6.11 42.2844L6.21 42.0444L10.21 34.0444C10.4342 33.581 10.8285 33.2219 11.3107 33.0418C11.793 32.8617 12.3261 32.8745 12.7992 33.0776C13.2722 33.2806 13.6488 33.6582 13.8505 34.1319C14.0522 34.6055 14.0635 35.1387 13.882 35.6204L13.788 35.8344L11.236 40.9404H36.764L34.212 35.8344C33.9752 35.3602 33.9363 34.8113 34.1039 34.3084C34.2716 33.8055 34.632 33.3897 35.106 33.1524ZM24 4.94043C27.713 4.94043 31.274 6.41543 33.8995 9.04093C36.525 11.6664 38 15.2274 38 18.9404C38 23.7044 35.422 27.5744 32.754 30.3204C31.2802 31.8173 29.6601 33.1627 27.918 34.3364L27.172 34.8284L26.508 35.2464C26.404 35.3084 26.304 35.3664 26.21 35.4264L25.696 35.7224C24.64 36.3224 23.36 36.3224 22.304 35.7224L21.79 35.4244L21.17 35.0464C21.0556 34.9744 20.9416 34.9018 20.828 34.8284L20.082 34.3364C18.3399 33.1627 16.7198 31.8173 15.246 30.3204C12.578 27.5744 10 23.7044 10 18.9404C10 15.2274 11.475 11.6664 14.1005 9.04093C16.726 6.41543 20.287 4.94043 24 4.94043ZM24 14.9404C22.9391 14.9404 21.9217 15.3619 21.1716 16.112C20.4214 16.8621 20 17.8796 20 18.9404C20 20.0013 20.4214 21.0187 21.1716 21.7689C21.9217 22.519 22.9391 22.9404 24 22.9404C25.0609 22.9404 26.0783 22.519 26.8284 21.7689C27.5786 21.0187 28 20.0013 28 18.9404C28 17.8796 27.5786 16.8621 26.8284 16.112C26.0783 15.3619 25.0609 14.9404 24 14.9404Z" fill="#00A4A4"/>
</g>
<defs>
<clipPath id="clip0_321_1044">
<rect width="48" height="48" fill="white" transform="translate(0 0.94043)"/>
</clipPath>
</defs>
</svg>
