<svg width="80" height="81" viewBox="0 0 80 81" fill="none" xmlns="http://www.w3.org/2000/svg">
<g clip-path="url(#clip0_363_2057)">
<path d="M78.4236 71.2164V71.3764H78.5728C78.6008 71.3768 78.6284 71.3698 78.6528 71.356C78.6625 71.3491 78.6704 71.3399 78.6756 71.3292C78.6809 71.3185 78.6833 71.3067 78.6828 71.2948C78.6833 71.2831 78.6808 71.2715 78.6756 71.2611C78.6703 71.2507 78.6625 71.2417 78.6528 71.2352C78.6287 71.2207 78.6009 71.2136 78.5728 71.2148H78.4236V71.2164ZM78.5744 71.1032C78.6384 71.0993 78.7017 71.1176 78.7536 71.1552C78.7744 71.1722 78.7909 71.1939 78.8018 71.2185C78.8128 71.2431 78.8177 71.2699 78.8164 71.2968C78.8174 71.3199 78.8134 71.343 78.8047 71.3644C78.796 71.3859 78.7828 71.4053 78.766 71.4212C78.726 71.456 78.6757 71.4769 78.6228 71.4808L78.8228 71.7088H78.6688L78.4848 71.4824H78.4252V71.7088H78.2964V71.1036H78.5764L78.5744 71.1032ZM78.5344 71.9176C78.602 71.9182 78.6689 71.9046 78.7308 71.8776C78.7905 71.8519 78.8448 71.8151 78.8908 71.7692C78.9369 71.7233 78.9737 71.669 78.9992 71.6092C79.0517 71.4824 79.0517 71.34 78.9992 71.2132C78.9733 71.1536 78.9366 71.0993 78.8908 71.0532C78.8448 71.0073 78.7905 70.9705 78.7308 70.9448C78.6685 70.9193 78.6017 70.9065 78.5344 70.9072C78.4659 70.9066 78.398 70.9193 78.3344 70.9448C78.2734 70.97 78.2178 71.0068 78.1708 71.0532C78.1 71.1258 78.0522 71.2176 78.0332 71.3171C78.0142 71.4167 78.0249 71.5197 78.064 71.6132C78.0884 71.6732 78.1247 71.7277 78.1708 71.7732C78.2178 71.8195 78.2734 71.8563 78.3344 71.8816C78.3976 71.9086 78.4657 71.9222 78.5344 71.9216M78.5344 70.7616C78.7102 70.7614 78.879 70.8304 79.0044 70.9536C79.0649 71.0128 79.113 71.0833 79.146 71.1612C79.1802 71.2412 79.1978 71.3272 79.1978 71.4142C79.1978 71.5012 79.1802 71.5872 79.146 71.6672C79.1122 71.7446 79.0642 71.8151 79.0044 71.8748C78.943 71.9336 78.8717 71.9811 78.7936 72.0148C78.7117 72.0496 78.6235 72.0673 78.5344 72.0668C78.4443 72.0674 78.355 72.0498 78.272 72.0148C78.1931 71.9818 78.121 71.9343 78.0596 71.8748C77.9998 71.8129 77.9525 71.7401 77.92 71.6604C77.8858 71.5804 77.8682 71.4944 77.8682 71.4074C77.8682 71.3204 77.8858 71.2344 77.92 71.1544C77.953 71.0765 78.0012 71.006 78.0616 70.9468C78.1222 70.8862 78.1945 70.8386 78.274 70.8068C78.357 70.7718 78.4463 70.7541 78.5364 70.7548M17.2864 68.4244C17.2864 67.2704 18.0424 66.3224 19.278 66.3224C20.4588 66.3224 21.2556 67.2296 21.2556 68.4244C21.2556 69.6192 20.4588 70.5264 19.278 70.5264C18.0424 70.5264 17.2864 69.5784 17.2864 68.4244ZM22.6016 68.4244V65.1404H21.174V65.9404C20.7212 65.3492 20.0344 64.9784 19.1004 64.9784C17.2604 64.9784 15.8164 66.4216 15.8164 68.426C15.8164 70.4304 17.2596 71.8736 19.1004 71.8736C20.034 71.8736 20.7212 71.5024 21.174 70.9116V71.7088H22.6V68.4244H22.6016ZM70.8384 68.4244C70.8384 67.2704 71.5944 66.3224 72.8304 66.3224C74.0124 66.3224 74.808 67.2296 74.808 68.4244C74.808 69.6192 74.0124 70.5264 72.8304 70.5264C71.5948 70.5264 70.8384 69.5784 70.8384 68.4244ZM76.1552 68.4244V62.5044H74.7264V65.9404C74.2736 65.3492 73.5868 64.9784 72.6528 64.9784C70.8128 64.9784 69.3688 66.4216 69.3688 68.426C69.3688 70.4304 70.812 71.8736 72.6528 71.8736C73.5868 71.8736 74.2736 71.5024 74.7264 70.9116V71.7088H76.1552V68.4244ZM40.32 66.2548C41.24 66.2548 41.8308 66.8316 41.9816 67.8472H38.5752C38.7276 66.8992 39.3032 66.2548 40.3204 66.2548M40.3488 64.9748C38.4248 64.9748 37.0788 66.3748 37.0788 68.4224C37.0788 70.51 38.4788 71.87 40.4444 71.87C41.4332 71.87 42.3388 71.6232 43.1356 70.95L42.436 69.892C41.8856 70.332 41.1848 70.5788 40.526 70.5788C39.606 70.5788 38.7684 70.1528 38.5624 68.9708H43.4372C43.4512 68.7932 43.4656 68.614 43.4656 68.422C43.4512 66.3752 42.1856 64.9744 40.348 64.9744M57.584 68.422C57.584 67.268 58.34 66.32 59.5756 66.32C60.7564 66.32 61.5532 67.2272 61.5532 68.422C61.5532 69.6168 60.7564 70.524 59.5756 70.524C58.34 70.524 57.5836 69.576 57.5836 68.422M62.8988 68.422V65.1404H61.472V65.9404C61.0176 65.3492 60.3324 64.9784 59.3984 64.9784C57.5584 64.9784 56.1144 66.4216 56.1144 68.426C56.1144 70.4304 57.5576 71.8736 59.3984 71.8736C60.3324 71.8736 61.0176 71.5024 61.472 70.9116V71.7088H62.8992V68.4244L62.8988 68.422ZM49.522 68.422C49.522 70.4136 50.9084 71.8696 53.0244 71.8696C54.0132 71.8696 54.672 71.6496 55.3844 71.0868L54.6988 69.9328C54.1628 70.318 53.6 70.524 52.9788 70.524C51.8392 70.51 51.0012 69.686 51.0012 68.422C51.0012 67.158 51.8392 66.3344 52.9788 66.32C53.5984 66.32 54.1612 66.526 54.6988 66.9112L55.3844 65.7572C54.6708 65.1944 54.012 64.9744 53.0244 64.9744C50.9084 64.9744 49.522 66.43 49.522 68.422ZM67.926 64.9744C67.1024 64.9744 66.566 65.3596 66.1952 65.9364V65.1404H64.7804V71.7052H66.2096V68.0252C66.2096 66.9388 66.6764 66.3352 67.6096 66.3352C67.9152 66.3308 68.2186 66.3869 68.5024 66.5004L68.9424 65.1548C68.6264 65.0304 68.2144 64.9756 67.9252 64.9756M29.6596 65.6624C28.9728 65.2096 28.0264 64.9756 26.9824 64.9756C25.3192 64.9756 24.2484 65.7728 24.2484 67.0772C24.2484 68.1476 25.0456 68.808 26.5136 69.014L27.188 69.11C27.9708 69.22 28.3404 69.426 28.3404 69.7968C28.3404 70.3044 27.8204 70.594 26.844 70.594C25.8552 70.594 25.1416 70.278 24.6604 69.9072L23.9896 71.0204C24.7724 71.5972 25.7612 71.8724 26.832 71.8724C28.728 71.8724 29.8268 70.9796 29.8268 69.7296C29.8268 68.5756 28.962 67.972 27.5332 67.766L26.8604 67.6684C26.2424 67.5884 25.7472 67.464 25.7472 67.024C25.7472 66.544 26.214 66.2552 26.9972 66.2552C27.8352 66.2552 28.6464 66.5712 29.044 66.818L29.662 65.664L29.6596 65.6624ZM48.08 64.9768C47.2564 64.9768 46.72 65.362 46.3508 65.9388V65.1404H44.936V71.7052H46.3636V68.0252C46.3636 66.9388 46.8304 66.3352 47.7636 66.3352C48.0692 66.3308 48.3726 66.3869 48.6564 66.5004L49.0964 65.1548C48.7804 65.0304 48.3684 64.9756 48.0792 64.9756M35.8976 65.1404H33.5632V63.1488H32.12V65.1404H30.7884V66.4452H32.12V69.44C32.12 70.9632 32.7112 71.8704 34.4 71.8704C35.0196 71.8704 35.7332 71.6784 36.186 71.3628L35.7736 70.1404C35.3476 70.3872 34.8808 70.5116 34.5096 70.5116C33.796 70.5116 33.5632 70.0716 33.5632 69.4128V66.4464H35.8976V65.1404ZM14.554 71.7068V67.5868C14.554 66.0352 13.5652 64.9912 11.9712 64.9772C11.1332 64.9632 10.2688 65.224 9.6636 66.1452C9.2108 65.4172 8.4972 64.9772 7.494 64.9772C6.7928 64.9772 6.1076 65.1832 5.5712 65.952V65.1404H4.1424V71.7052H5.5824V68.0652C5.5824 66.9256 6.2144 66.32 7.1904 66.32C8.1384 66.32 8.618 66.938 8.618 68.0508V71.7044H10.0612V68.0644C10.0612 66.9248 10.72 66.3192 11.6676 66.3192C12.6424 66.3192 13.1076 66.9372 13.1076 68.05V71.7036L14.554 71.7068Z" fill="#334242"/>
<path d="M79.2376 49.8692V48.9092H78.9876L78.6984 49.568L78.4108 48.9092H78.16V49.8692H78.3376V49.146L78.608 49.77H78.792L79.0624 49.1444V49.8692H79.2384H79.2376ZM77.6516 49.8692V49.0736H77.9716V48.9116H77.154V49.0736H77.474V49.8692H77.65H77.6516Z" fill="#8A9292"/>
<path d="M50.8228 53.9864H29.1884V15.1064H50.8232L50.8228 53.9864Z" fill="#546161"/>
<path d="M30.56 34.5471C30.56 26.6603 34.2528 19.6347 40.0032 15.1071C35.6504 11.6749 30.2667 9.81215 24.7236 9.82034C11.0688 9.82034 0 20.8907 0 34.5471C0 48.2035 11.0688 59.2739 24.7236 59.2739C30.2669 59.2822 35.6507 57.4194 40.0036 53.9871C34.2536 49.4603 30.56 42.4343 30.56 34.5471Z" fill="#334242"/>
<path d="M80.01 34.5471C80.01 48.2035 68.9412 59.2739 55.2864 59.2739C49.7425 59.2821 44.3581 57.4193 40.0044 53.9871C45.7564 49.4595 49.4492 42.4343 49.4492 34.5471C49.4492 26.6599 45.7564 19.6347 40.0044 15.1071C44.358 11.675 49.7423 9.81229 55.286 9.82034C68.9408 9.82034 80.0096 20.8907 80.0096 34.5471" fill="#8A9292"/>
</g>
<defs>
<clipPath id="clip0_363_2057">
<rect width="80" height="80" fill="white" transform="translate(0 0.94043)"/>
</clipPath>
</defs>
</svg>
