<svg width="80" height="81" viewBox="0 0 80 81" fill="none" xmlns="http://www.w3.org/2000/svg">
<rect x="0.5" y="0.970215" width="79" height="79" rx="39.5" fill="white"/>
<rect x="0.5" y="0.970215" width="79" height="79" rx="39.5" stroke="#00A4A4"/>
<path d="M39.9856 54.9902C38.2923 54.9902 36.7656 54.5902 35.4056 53.7902C34.0456 52.9902 32.9656 51.9169 32.1656 50.5702C31.3656 49.2102 30.9656 47.7035 30.9656 46.0502H35.8456C35.8456 46.7969 36.019 47.4769 36.3656 48.0902C36.7256 48.7035 37.219 49.1969 37.8456 49.5702C38.4723 49.9302 39.1856 50.1102 39.9856 50.1102C40.719 50.1102 41.399 49.9302 42.0256 49.5702C42.6656 49.1969 43.179 48.7035 43.5656 48.0902C43.9523 47.4769 44.1456 46.7969 44.1456 46.0502C44.1456 45.0769 43.8856 44.2702 43.3656 43.6302C42.8456 42.9769 42.119 42.4902 41.1856 42.1702C40.2656 41.8502 39.1923 41.6902 37.9656 41.6902V37.9302C39.619 37.9302 40.9256 37.6169 41.8856 36.9902C42.859 36.3635 43.3456 35.4435 43.3456 34.2302C43.3456 33.6035 43.1856 33.0302 42.8656 32.5102C42.5456 31.9902 42.119 31.5769 41.5856 31.2702C41.0656 30.9502 40.4923 30.7902 39.8656 30.7902C39.2256 30.7902 38.6056 30.9502 38.0056 31.2702C37.4056 31.5769 36.9123 31.9902 36.5256 32.5102C36.1523 33.0302 35.9656 33.6035 35.9656 34.2302H31.0856C31.0856 33.0835 31.319 32.0102 31.7856 31.0102C32.2523 29.9969 32.8923 29.1102 33.7056 28.3502C34.5323 27.5902 35.4656 26.9969 36.5056 26.5702C37.559 26.1302 38.659 25.9102 39.8056 25.9102C41.3123 25.9102 42.7056 26.2835 43.9856 27.0302C45.2656 27.7769 46.2923 28.7769 47.0656 30.0302C47.839 31.2835 48.2256 32.6835 48.2256 34.2302C48.2256 35.3102 47.9723 36.3702 47.4656 37.4102C46.959 38.4502 46.239 39.1835 45.3056 39.6102C46.119 39.9035 46.799 40.3969 47.3456 41.0902C47.8923 41.7702 48.3056 42.5502 48.5856 43.4302C48.879 44.2969 49.0256 45.1702 49.0256 46.0502C49.0256 47.6902 48.6123 49.1902 47.7856 50.5502C46.959 51.8969 45.859 52.9769 44.4856 53.7902C43.1256 54.5902 41.6256 54.9902 39.9856 54.9902Z" fill="#001111"/>
</svg>
