<svg width="80" height="81" viewBox="0 0 80 81" fill="none" xmlns="http://www.w3.org/2000/svg">
<rect x="0.5" y="0.970215" width="79" height="79" rx="39.5" fill="white"/>
<rect x="0.5" y="0.970215" width="79" height="79" rx="39.5" stroke="#00A4A4"/>
<path d="M30.1742 54.4702V50.1102C31.0409 49.4569 32.0676 48.6502 33.2542 47.6902C34.4409 46.7169 35.6609 45.6702 36.9142 44.5502C38.1676 43.4169 39.3276 42.2835 40.3942 41.1502C41.4609 40.0169 42.3276 38.9369 42.9942 37.9102C43.6742 36.8835 44.0142 36.0035 44.0142 35.2702C44.0142 34.4569 43.8142 33.7169 43.4142 33.0502C43.0142 32.3702 42.4809 31.8302 41.8142 31.4302C41.1609 31.0302 40.4276 30.8302 39.6142 30.8302C38.8009 30.8302 38.0609 31.0302 37.3942 31.4302C36.7276 31.8302 36.1942 32.3702 35.7942 33.0502C35.3942 33.7169 35.1942 34.4569 35.1942 35.2702H30.3142C30.3142 33.5102 30.7409 31.9302 31.5942 30.5302C32.4476 29.1169 33.5742 28.0035 34.9742 27.1902C36.3876 26.3635 37.9342 25.9502 39.6142 25.9502C41.3209 25.9502 42.8742 26.3702 44.2742 27.2102C45.6742 28.0369 46.7942 29.1569 47.6342 30.5702C48.4742 31.9835 48.8942 33.5502 48.8942 35.2702C48.8942 36.1769 48.7276 37.0902 48.3942 38.0102C48.0609 38.9302 47.5942 39.8569 46.9942 40.7902C46.3942 41.7235 45.6876 42.6702 44.8742 43.6302C44.0609 44.5769 43.1609 45.5502 42.1742 46.5502C41.2009 47.5369 40.1742 48.5502 39.0942 49.5902H49.0342V54.4702H30.1742Z" fill="#001111"/>
</svg>
