<svg width="191" height="16" viewBox="0 0 191 16" fill="none" xmlns="http://www.w3.org/2000/svg">
<path d="M17.7332 0.464994C17.6345 2.84632 17.5852 5.39674 17.5852 8.11625C17.5852 10.8498 17.6345 13.4073 17.7332 15.7886H10.1664L5.05152 4.24835L5.43197 15.7886H0C0.112726 13.055 0.169088 10.4976 0.169088 8.11625C0.169088 5.74901 0.112726 3.19859 0 0.464994H7.77807L12.9141 12.3223L12.5548 0.464994H17.7332Z" fill="#00A4A4"/>
<path d="M28.4057 16C25.1789 16 22.8047 15.3025 21.2829 13.9075C19.7611 12.4985 19.0002 10.5258 19.0002 7.98943C19.0002 5.48129 19.754 3.52268 21.2617 2.11361C22.7835 0.704536 25.1648 0 28.4057 0C31.6607 0 34.042 0.704536 35.5497 2.11361C37.0715 3.52268 37.8324 5.48129 37.8324 7.98943C37.8324 10.5399 37.0785 12.5125 35.5708 13.9075C34.0631 15.3025 31.6748 16 28.4057 16ZM28.4057 11.6882C29.9698 11.6882 31.097 11.3923 31.7875 10.8005C32.4779 10.1946 32.8231 9.2576 32.8231 7.98943C32.8231 6.74945 32.4779 5.82651 31.7875 5.22061C31.097 4.61471 29.9698 4.31176 28.4057 4.31176C26.8557 4.31176 25.7355 4.61471 25.0451 5.22061C24.3546 5.82651 24.0094 6.74945 24.0094 7.98943C24.0094 9.24351 24.3546 10.1735 25.0451 10.7794C25.7355 11.3853 26.8557 11.6882 28.4057 11.6882Z" fill="#00A4A4"/>
<path d="M58.4437 0.443858L60.0923 15.7886H54.6181L54.2799 4.84016L52.1663 15.7886H46.6286L44.4727 4.9247L44.1557 15.7886H38.6815L40.3301 0.443858H47.5163L49.3552 10.4412L50.9615 0.443858H58.4437Z" fill="#00A4A4"/>
<path d="M74.6925 15.7886C74.4248 14.9855 74.0655 13.978 73.6146 12.7662H66.8722L65.8154 15.7886H60.5102L66.4283 0.443858H74.2064L80.1668 15.7886H74.6925ZM72.4098 9.46896C71.8744 7.98943 71.3248 6.50991 70.7612 5.03038L70.254 3.65654C69.7608 4.93879 69.0351 6.87627 68.0769 9.46896H72.4098Z" fill="#00A4A4"/>
<path d="M87.2226 0.21136C89.8716 0.21136 91.9641 0.535447 93.5 1.18362C95.0359 1.8177 96.1068 2.70542 96.7127 3.84676C97.3327 4.97402 97.6427 6.36195 97.6427 8.01057C97.6427 9.57464 97.2904 10.9414 96.5859 12.111C95.8813 13.2805 94.8245 14.1893 93.4154 14.8375C92.0064 15.4716 90.2732 15.7886 88.216 15.7886C86.9619 15.7886 85.6867 15.7886 84.3903 15.7886C83.094 15.7886 81.7836 15.7816 80.459 15.7675C80.5718 12.9916 80.6281 10.406 80.6281 8.01057C80.6281 5.58697 80.5718 3.05768 80.459 0.422721C82.1358 0.281814 84.3903 0.21136 87.2226 0.21136ZM88.8078 11.5826C90.1182 11.5826 90.9918 11.2655 91.4286 10.6314C91.8655 9.99736 92.0839 9.12373 92.0839 8.01057C92.0839 6.93967 91.8514 6.0731 91.3864 5.41083C90.9355 4.74857 90.0759 4.41744 88.8078 4.41744C87.441 4.41744 86.4194 4.45971 85.743 4.54425V11.5826H88.8078Z" fill="#00A4A4"/>
<path d="M116.614 0.443858C116.515 2.82519 116.466 5.38265 116.466 8.11625C116.466 10.8498 116.515 13.4073 116.614 15.7886H111.647V10.0396H103.869V15.7886H98.9019C99.0146 13.055 99.071 10.4976 99.071 8.11625C99.071 5.73492 99.0146 3.17746 98.9019 0.443858H103.869V6.19287H111.647V0.443858H116.614Z" fill="#00A4A4"/>
<path d="M131.218 15.7886C130.951 14.9855 130.591 13.978 130.14 12.7662H123.398L122.341 15.7886H117.036L122.954 0.443858H130.732L136.693 15.7886H131.218ZM128.936 9.46896C128.4 7.98943 127.851 6.50991 127.287 5.03038L126.78 3.65654C126.287 4.93879 125.561 6.87627 124.603 9.46896H128.936Z" fill="#00A4A4"/>
<path d="M154.104 0.443858L152.709 3.67768C151.483 6.53809 150.518 8.82783 149.814 10.5469C149.109 12.266 148.461 14.0132 147.869 15.7886H141.549C140.972 14.0414 140.331 12.3153 139.626 10.6103C138.936 8.89124 138.006 6.69309 136.836 4.01585C136.639 3.56495 136.124 2.37428 135.293 0.443858H141.169C141.592 1.81066 142.219 3.56495 143.05 5.70674C143.783 7.59489 144.375 9.22941 144.825 10.6103C145.121 9.63805 145.474 8.60238 145.882 7.5033C146.305 6.39014 146.559 5.71378 146.643 5.47424C147.46 3.31836 148.059 1.64157 148.44 0.443858H154.104Z" fill="#00A4A4"/>
<path d="M159.797 11.9207C165.151 11.8926 169.033 11.8151 171.443 11.6882C171.344 12.266 171.28 12.8648 171.252 13.4848C171.238 14.0907 171.231 14.8587 171.231 15.7886H154.808C154.921 13.055 154.978 10.4976 154.978 8.11625C154.978 5.73492 154.921 3.17746 154.808 0.443858H171.231V4.26948H159.797V6.29855C160.473 6.31264 161.473 6.31968 162.798 6.31968C165.038 6.31968 167.356 6.27741 169.752 6.19287V9.82827C167.356 9.74373 165.038 9.70145 162.798 9.70145C161.473 9.70145 160.473 9.7085 159.797 9.72259V11.9207Z" fill="#00A4A4"/>
<path d="M190.448 0.464994C190.349 2.84632 190.3 5.39674 190.3 8.11625C190.3 10.8498 190.349 13.4073 190.448 15.7886H182.881L177.766 4.24835L178.147 15.7886H172.715C172.827 13.055 172.884 10.4976 172.884 8.11625C172.884 5.74901 172.827 3.19859 172.715 0.464994H180.493L185.629 12.3223L185.269 0.464994H190.448Z" fill="#00A4A4"/>
</svg>
