<svg width="49" height="49" viewBox="0 0 49 49" fill="none" xmlns="http://www.w3.org/2000/svg">
<g clip-path="url(#clip0_321_1075)">
<path d="M22.5066 6.67633C22.7267 6.29865 23.042 5.98528 23.421 5.76748C23.8 5.54968 24.2295 5.43506 24.6666 5.43506C25.1038 5.43506 25.5332 5.54968 25.9123 5.76748C26.2913 5.98528 26.6065 6.29865 26.8266 6.67633L32.4166 16.2723L43.2726 18.6243C43.6996 18.7171 44.0949 18.9202 44.419 19.2134C44.743 19.5066 44.9846 19.8795 45.1195 20.2952C45.2545 20.7108 45.2782 21.1545 45.1882 21.5822C45.0982 22.0098 44.8977 22.4064 44.6066 22.7323L37.2066 31.0143L38.3266 42.0643C38.3708 42.4994 38.3001 42.9385 38.1215 43.3378C37.9429 43.737 37.6627 44.0824 37.3089 44.3394C36.9551 44.5965 36.54 44.7563 36.1051 44.8027C35.6702 44.8492 35.2308 44.7808 34.8306 44.6043L24.6666 40.1243L14.5026 44.6043C14.1025 44.7808 13.663 44.8492 13.2281 44.8027C12.7933 44.7563 12.3782 44.5965 12.0244 44.3394C11.6705 44.0824 11.3904 43.737 11.2118 43.3378C11.0332 42.9385 10.9624 42.4994 11.0066 42.0643L12.1266 31.0143L4.72663 22.7343C4.43508 22.4084 4.23414 22.0117 4.14385 21.5838C4.05357 21.1559 4.07711 20.7118 4.21211 20.2958C4.34712 19.8799 4.58887 19.5066 4.91324 19.2133C5.2376 18.92 5.63323 18.7169 6.06063 18.6243L16.9166 16.2723L22.5066 6.67633Z" fill="#00A4A4"/>
</g>
<defs>
<clipPath id="clip0_321_1075">
<rect width="48" height="48" fill="white" transform="translate(0.666626 0.94043)"/>
</clipPath>
</defs>
</svg>
