<svg width="32" height="31" viewBox="0 0 32 31" fill="none" xmlns="http://www.w3.org/2000/svg">
<path fill-rule="evenodd" clip-rule="evenodd" d="M21.5521 4.95112C19.8044 -0.427715 12.1948 -0.427715 10.4471 4.95112C9.93323 6.53256 8.45952 7.60327 6.79669 7.60327C1.14106 7.60327 -1.21044 14.8404 3.36506 18.1647C4.71032 19.1421 5.27323 20.8746 4.75939 22.456C3.0117 27.8348 9.168 32.3077 13.7435 28.9834C15.0888 28.006 16.9104 28.006 18.2556 28.9834C22.8311 32.3077 28.9874 27.8348 27.2397 22.456C26.7259 20.8746 27.2888 19.1421 28.6341 18.1647C33.2096 14.8404 30.8581 7.60327 25.2024 7.60327C23.5396 7.60327 22.0659 6.53256 21.5521 4.95112ZM12.3492 5.56915C13.4982 2.03294 18.501 2.03294 19.6499 5.56915C20.4315 7.97464 22.6732 9.60327 25.2024 9.60327C28.9206 9.60327 30.4666 14.3612 27.4585 16.5467C25.4123 18.0334 24.556 20.6686 25.3376 23.0741C26.4866 26.6103 22.4393 29.5508 19.4312 27.3653C17.385 25.8787 14.6142 25.8787 12.5679 27.3653C9.55986 29.5508 5.51251 26.6103 6.6615 23.0741C7.44309 20.6686 6.58686 18.0334 4.54063 16.5467C1.53256 14.3612 3.0785 9.60327 6.79669 9.60327C9.32597 9.60327 11.5676 7.97464 12.3492 5.56915Z" fill="#546161"/>
</svg>
