<svg width="49" height="49" viewBox="0 0 49 49" fill="none" xmlns="http://www.w3.org/2000/svg">
<path fill-rule="evenodd" clip-rule="evenodd" d="M32.3333 6.94043C32.8638 6.94043 33.3725 7.15114 33.7476 7.52622C34.1226 7.90129 34.3333 8.41 34.3333 8.94043V10.9404H38.3333C39.3942 10.9404 40.4116 11.3619 41.1618 12.112C41.9119 12.8621 42.3333 13.8796 42.3333 14.9404V25.9964C40.0472 23.9528 37.0654 22.8619 34.0002 22.9477C30.935 23.0335 28.0189 24.2894 25.8506 26.4577C23.6824 28.626 22.4264 31.5421 22.3406 34.6073C22.2548 37.6725 23.3457 40.6543 25.3893 42.9404H10.3333C9.27248 42.9404 8.25506 42.519 7.50492 41.7689C6.75477 41.0187 6.33334 40.0013 6.33334 38.9404V14.9404C6.33334 13.8796 6.75477 12.8621 7.50492 12.112C8.25506 11.3619 9.27248 10.9404 10.3333 10.9404H14.3333V8.94043C14.3333 8.41 14.5441 7.90129 14.9191 7.52622C15.2942 7.15114 15.8029 6.94043 16.3333 6.94043C16.8638 6.94043 17.3725 7.15114 17.7476 7.52622C18.1226 7.90129 18.3333 8.41 18.3333 8.94043V10.9404H30.3333V8.94043C30.3333 8.41 30.5441 7.90129 30.9191 7.52622C31.2942 7.15114 31.8029 6.94043 32.3333 6.94043ZM34.3333 26.9404C36.4551 26.9404 38.4899 27.7833 39.9902 29.2836C41.4905 30.7839 42.3333 32.8187 42.3333 34.9404C42.3333 37.0622 41.4905 39.097 39.9902 40.5973C38.4899 42.0976 36.4551 42.9404 34.3333 42.9404C32.2116 42.9404 30.1768 42.0976 28.6765 40.5973C27.1762 39.097 26.3333 37.0622 26.3333 34.9404C26.3333 32.8187 27.1762 30.7839 28.6765 29.2836C30.1768 27.7833 32.2116 26.9404 34.3333 26.9404ZM34.3333 29.9404C33.8435 29.9405 33.3707 30.1203 33.0046 30.4459C32.6385 30.7714 32.4047 31.2199 32.3473 31.7064L32.3333 31.9404V34.9404C32.3334 35.4303 32.5133 35.9031 32.8388 36.2692C33.1643 36.6352 33.6128 36.8691 34.0993 36.9264L34.3333 36.9404H36.3333C36.8431 36.9399 37.3334 36.7447 37.7041 36.3947C38.0748 36.0448 38.2978 35.5665 38.3277 35.0576C38.3576 34.5488 38.192 34.0477 37.8648 33.6568C37.5376 33.2659 37.0735 33.0146 36.5673 32.9544L36.3333 32.9404V31.9404C36.3333 31.41 36.1226 30.9013 35.7476 30.5262C35.3725 30.1511 34.8638 29.9404 34.3333 29.9404ZM17.3333 28.9404H16.3333C15.8029 28.9404 15.2942 29.1511 14.9191 29.5262C14.5441 29.9013 14.3333 30.41 14.3333 30.9404C14.3333 31.4709 14.5441 31.9796 14.9191 32.3546C15.2942 32.7297 15.8029 32.9404 16.3333 32.9404H17.3333C17.8638 32.9404 18.3725 32.7297 18.7476 32.3546C19.1226 31.9796 19.3333 31.4709 19.3333 30.9404C19.3333 30.41 19.1226 29.9013 18.7476 29.5262C18.3725 29.1511 17.8638 28.9404 17.3333 28.9404ZM22.3333 20.9404H16.3333C15.8236 20.941 15.3333 21.1362 14.9626 21.4861C14.5919 21.8361 14.3689 22.3143 14.339 22.8232C14.3091 23.3321 14.4747 23.8332 14.8019 24.2241C15.1291 24.615 15.5932 24.8662 16.0993 24.9264L16.3333 24.9404H22.3333C22.8431 24.9399 23.3334 24.7447 23.7041 24.3947C24.0748 24.0448 24.2978 23.5665 24.3277 23.0576C24.3576 22.5488 24.192 22.0477 23.8648 21.6568C23.5376 21.2659 23.0735 21.0146 22.5673 20.9544L22.3333 20.9404Z" fill="#00A4A4"/>
</svg>
