<svg width="80" height="81" viewBox="0 0 80 81" fill="none" xmlns="http://www.w3.org/2000/svg">
<g clip-path="url(#clip0_363_2065)">
<path d="M68 0.94043H12C5.37258 0.94043 0 6.31301 0 12.9404V68.9404C0 75.5678 5.37258 80.9404 12 80.9404H68C74.6274 80.9404 80 75.5678 80 68.9404V12.9404C80 6.31301 74.6274 0.94043 68 0.94043Z" fill="black"/>
<path d="M18.7188 48.3779C21.4688 48.3779 23.6094 46.2529 23.6094 43.0967V30.8311H26.5938V50.7217H23.6406V48.8779C22.9609 49.5813 22.1446 50.1382 21.2417 50.5143C20.3389 50.8905 19.3686 51.0781 18.3906 51.0654C14.125 51.0654 10.8594 47.9717 10.8594 43.2842V30.8467H13.8437V43.1123C13.8437 46.3154 15.9375 48.3779 18.7188 48.3779ZM28.8125 30.8311H31.6875V38.0811C32.3582 37.3982 33.1582 36.8558 34.0408 36.4856C34.9234 36.1154 35.871 35.9247 36.8281 35.9248C38.8359 35.9248 40.7614 36.7224 42.1811 38.1421C43.6009 39.5618 44.3984 41.4873 44.3984 43.4951C44.3984 45.5029 43.6009 47.4284 42.1811 48.8481C40.7614 50.2678 38.8359 51.0654 36.8281 51.0654C35.8663 51.0661 34.9138 50.8758 34.0261 50.5057C33.1383 50.1356 32.3328 49.5929 31.6562 48.9092V50.7217H28.8125V30.8311ZM36.625 48.5186C37.6201 48.5247 38.5946 48.2357 39.4254 47.688C40.2562 47.1403 40.9059 46.3585 41.2924 45.4416C41.6789 44.5246 41.7848 43.5136 41.5967 42.5365C41.4087 41.5594 40.9351 40.6599 40.2358 39.9519C39.5366 39.2439 38.6431 38.7592 37.6684 38.559C36.6936 38.3588 35.6814 38.4522 34.7597 38.8272C33.838 39.2023 33.0483 39.8423 32.4903 40.6662C31.9323 41.4901 31.6312 42.461 31.625 43.4561V43.4873C31.6209 44.1439 31.7461 44.7949 31.9936 45.4031C32.2411 46.0113 32.6059 46.5648 33.0673 47.032C33.5287 47.4992 34.0776 47.871 34.6827 48.126C35.2878 48.3811 35.9371 48.5145 36.5938 48.5186H36.625ZM53.0156 35.9404C57.1875 35.9404 60.2656 39.1436 60.2656 43.4717V44.4092H48.4844C48.6594 45.5564 49.2394 46.603 50.1193 47.3596C50.9991 48.1162 52.1208 48.5329 53.2812 48.5342C54.9531 48.5342 56.375 47.8467 57.4531 46.4092L59.5312 47.9404C58.0781 49.8779 55.9219 51.0342 53.2812 51.0342C48.9375 51.0342 45.5781 47.7998 45.5781 43.4717C45.5625 39.3779 48.7812 35.9404 53.0156 35.9404ZM48.5156 42.1279H57.3438C56.8594 39.9092 55.0781 38.4404 52.9375 38.4404C50.8281 38.4404 49.0312 39.9248 48.5156 42.1279ZM67.9531 38.7842C66.0781 38.7842 64.7188 40.2373 64.7188 42.4717V50.7061H61.8438V36.2217H64.6875V38.0186C65.3906 36.8467 66.5625 36.1123 68.1562 36.1123H69.1562V38.7842H67.9531Z" fill="white"/>
</g>
<defs>
<clipPath id="clip0_363_2065">
<rect width="80" height="80" fill="white" transform="translate(0 0.94043)"/>
</clipPath>
</defs>
</svg>
