<svg width="18" height="19" viewBox="0 0 18 19" fill="none" xmlns="http://www.w3.org/2000/svg">
<path d="M7.89597 5.3207C7.67532 5.10201 7.31917 5.1036 7.10048 5.32425C6.88179 5.54489 6.88338 5.90105 7.10403 6.11973L8.42626 7.43021C8.96288 7.96207 9.33098 8.3281 9.58005 8.63824C9.822 8.93952 9.90501 9.13303 9.9271 9.30634C9.94097 9.41516 9.94097 9.52527 9.9271 9.63409C9.90501 9.8074 9.822 10.0009 9.58006 10.3022C9.33098 10.6123 8.96288 10.9784 8.42626 11.5102L7.10403 12.8207C6.88338 13.0394 6.88179 13.3955 7.10048 13.6162C7.31917 13.8368 7.67532 13.8384 7.89597 13.6197L9.24202 12.2856C9.749 11.7832 10.1634 11.3725 10.4572 11.0066C10.7628 10.6261 10.984 10.2399 11.0431 9.77634C11.069 9.57307 11.069 9.36736 11.0431 9.16409C10.984 8.70051 10.7628 8.3143 10.4572 7.93381C10.1634 7.5679 9.749 7.15724 9.24202 6.65479L7.89597 5.3207Z" fill="#F6BD60"/>
</svg>
