<svg width="152" height="24" viewBox="0 0 152 24" fill="none" xmlns="http://www.w3.org/2000/svg">
<path fill-rule="evenodd" clip-rule="evenodd" d="M16.1643 4.27559C14.8535 0.241469 9.14631 0.241469 7.83555 4.27559C7.45017 5.46167 6.34488 6.26471 5.09776 6.26471C0.856037 6.26471 -0.907588 11.6926 2.52404 14.1858C3.53298 14.9188 3.95516 16.2182 3.56978 17.4043C2.25902 21.4384 6.87624 24.793 10.3079 22.2998C11.3168 21.5667 12.683 21.5667 13.692 22.2998C17.1236 24.793 21.7408 21.4384 20.4301 17.4043C20.0447 16.2182 20.4669 14.9188 21.4758 14.1858C24.9074 11.6926 23.1438 6.26471 18.9021 6.26471C17.655 6.26471 16.5497 5.46167 16.1643 4.27559ZM9.26213 4.73912C10.1239 2.08696 13.876 2.08696 14.7377 4.73912C15.3239 6.54323 17.0051 7.76471 18.9021 7.76471C21.6907 7.76471 22.8502 11.3332 20.5941 12.9723C19.0594 14.0873 18.4173 16.0637 19.0035 17.8678C19.8652 20.52 16.8297 22.7254 14.5736 21.0863C13.039 19.9713 10.9609 19.9712 9.4262 21.0863C7.17014 22.7254 4.13463 20.52 4.99637 17.8678C5.58256 16.0637 4.94039 14.0873 3.40572 12.9723C1.14966 11.3332 2.30912 7.76471 5.09776 7.76471C6.99472 7.76471 8.67594 6.54323 9.26213 4.73912Z" fill="#F6BD60"/>
<path fill-rule="evenodd" clip-rule="evenodd" d="M48.1643 4.27559C46.8535 0.241469 41.1463 0.241469 39.8355 4.27559C39.4502 5.46167 38.3449 6.26471 37.0978 6.26471C32.856 6.26471 31.0924 11.6926 34.524 14.1858C35.533 14.9188 35.9552 16.2182 35.5698 17.4043C34.259 21.4384 38.8762 24.793 42.3079 22.2998C43.3168 21.5667 44.683 21.5667 45.692 22.2998C49.1236 24.793 53.7408 21.4384 52.4301 17.4043C52.0447 16.2182 52.4669 14.9188 53.4758 14.1858C56.9074 11.6926 55.1438 6.26471 50.9021 6.26471C49.655 6.26471 48.5497 5.46167 48.1643 4.27559ZM41.2621 4.73912C42.1239 2.08696 45.876 2.08696 46.7377 4.73912C47.3239 6.54323 49.0051 7.76471 50.9021 7.76471C53.6907 7.76471 54.8502 11.3332 52.5941 12.9723C51.0594 14.0873 50.4173 16.0637 51.0035 17.8678C51.8652 20.52 48.8297 22.7254 46.5736 21.0863C45.039 19.9713 42.9609 19.9712 41.4262 21.0863C39.1701 22.7254 36.1346 20.52 36.9964 17.8678C37.5826 16.0637 36.9404 14.0873 35.4057 12.9723C33.1497 11.3332 34.3091 7.76471 37.0978 7.76471C38.9947 7.76471 40.6759 6.54323 41.2621 4.73912Z" fill="#F6BD60"/>
<path fill-rule="evenodd" clip-rule="evenodd" d="M80.1643 4.27559C78.8535 0.241469 73.1463 0.241469 71.8355 4.27559C71.4502 5.46167 70.3449 6.26471 69.0978 6.26471C64.856 6.26471 63.0924 11.6926 66.524 14.1858C67.533 14.9188 67.9552 16.2182 67.5698 17.4043C66.259 21.4384 70.8762 24.793 74.3079 22.2998C75.3168 21.5667 76.683 21.5667 77.692 22.2998C81.1236 24.793 85.7408 21.4384 84.4301 17.4043C84.0447 16.2182 84.4669 14.9188 85.4758 14.1858C88.9074 11.6926 87.1438 6.26471 82.9021 6.26471C81.655 6.26471 80.5497 5.46167 80.1643 4.27559ZM73.2621 4.73912C74.1239 2.08696 77.876 2.08696 78.7377 4.73912C79.3239 6.54323 81.0051 7.76471 82.9021 7.76471C85.6907 7.76471 86.8502 11.3332 84.5941 12.9723C83.0594 14.0873 82.4173 16.0637 83.0035 17.8678C83.8652 20.52 80.8297 22.7254 78.5736 21.0863C77.039 19.9713 74.9609 19.9712 73.4262 21.0863C71.1701 22.7254 68.1346 20.52 68.9964 17.8678C69.5826 16.0637 68.9404 14.0873 67.4057 12.9723C65.1497 11.3332 66.3091 7.76471 69.0978 7.76471C70.9947 7.76471 72.6759 6.54323 73.2621 4.73912Z" fill="#F6BD60"/>
<path fill-rule="evenodd" clip-rule="evenodd" d="M112.164 4.27559C110.854 0.241469 105.146 0.241469 103.836 4.27559C103.45 5.46167 102.345 6.26471 101.098 6.26471C96.856 6.26471 95.0924 11.6926 98.524 14.1858C99.533 14.9188 99.9552 16.2182 99.5698 17.4043C98.259 21.4384 102.876 24.793 106.308 22.2998C107.317 21.5667 108.683 21.5667 109.692 22.2998C113.124 24.793 117.741 21.4384 116.43 17.4043C116.045 16.2182 116.467 14.9188 117.476 14.1858C120.907 11.6926 119.144 6.26471 114.902 6.26471C113.655 6.26471 112.55 5.46167 112.164 4.27559ZM105.262 4.73912C106.124 2.08696 109.876 2.08696 110.738 4.73912C111.324 6.54323 113.005 7.76471 114.902 7.76471C117.691 7.76471 118.85 11.3332 116.594 12.9723C115.059 14.0873 114.417 16.0637 115.003 17.8678C115.865 20.52 112.83 22.7254 110.574 21.0863C109.039 19.9713 106.961 19.9712 105.426 21.0863C103.17 22.7254 100.135 20.52 100.996 17.8678C101.583 16.0637 100.94 14.0873 99.4057 12.9723C97.1497 11.3332 98.3091 7.76471 101.098 7.76471C102.995 7.76471 104.676 6.54323 105.262 4.73912Z" fill="#F6BD60"/>
<path fill-rule="evenodd" clip-rule="evenodd" d="M144.164 4.27559C142.854 0.241469 137.146 0.241469 135.836 4.27559C135.45 5.46167 134.345 6.26471 133.098 6.26471C128.856 6.26471 127.092 11.6926 130.524 14.1858C131.533 14.9188 131.955 16.2182 131.57 17.4043C130.259 21.4384 134.876 24.793 138.308 22.2998C139.317 21.5667 140.683 21.5667 141.692 22.2998C145.124 24.793 149.741 21.4384 148.43 17.4043C148.045 16.2182 148.467 14.9188 149.476 14.1858C152.907 11.6926 151.144 6.26471 146.902 6.26471C145.655 6.26471 144.55 5.46167 144.164 4.27559ZM137.262 4.73912C138.124 2.08696 141.876 2.08696 142.738 4.73912C143.324 6.54323 145.005 7.76471 146.902 7.76471C149.691 7.76471 150.85 11.3332 148.594 12.9723C147.059 14.0873 146.417 16.0637 147.003 17.8678C147.865 20.52 144.83 22.7254 142.574 21.0863C141.039 19.9713 138.961 19.9712 137.426 21.0863C135.17 22.7254 132.135 20.52 132.996 17.8678C133.583 16.0637 132.94 14.0873 131.406 12.9723C129.15 11.3332 130.309 7.76471 133.098 7.76471C134.995 7.76471 136.676 6.54323 137.262 4.73912Z" fill="#F6BD60"/>
</svg>
